<svg xmlns="http://www.w3.org/2000/svg" xmlns:xlink="http://www.w3.org/1999/xlink" width="460" height="275.201" viewBox="0 0 460 275.201"><defs><clipPath id="a"><rect width="460" height="275.201" fill="none"/></clipPath></defs><g transform="translate(0)" clip-path="url(#a)"><path d="M227.655,1764.267H184.366L182,1688.541a5.541,5.541,0,0,1,5.541-5.541H224.48a5.541,5.541,0,0,1,5.541,5.541Z" transform="translate(-108.127 -1574.027)" fill="#333"/><path d="M300.346,1764.267H257.057l-2.366-75.726a5.541,5.541,0,0,1,5.541-5.541h36.939a5.541,5.541,0,0,1,5.541,5.541Z" transform="translate(-46.559 -1574.027)" fill="#333"/><path d="M372.705,1764.267H329.416l-2.366-75.726a5.541,5.541,0,0,1,5.541-5.541h36.94a5.541,5.541,0,0,1,5.541,5.541Z" transform="translate(14.727 -1574.027)" fill="#333"/><g transform="translate(54.515 203.956)"><path d="M171.519,1734.516h5.087a7.3,7.3,0,0,1,3.308.722,5.351,5.351,0,0,1,2.244,2.045,6.229,6.229,0,0,1,0,6.1,5.352,5.352,0,0,1-2.244,2.045,7.3,7.3,0,0,1-3.308.722h-5.087Zm4.987,9.805a4.934,4.934,0,0,0,2.251-.489,3.5,3.5,0,0,0,1.5-1.4,4.491,4.491,0,0,0,0-4.206,3.5,3.5,0,0,0-1.5-1.4,4.934,4.934,0,0,0-2.251-.49H173.68v7.977Z" transform="translate(-171.519 -1734.35)" fill="#333"/><path d="M178.953,1734.516h2.161v11.634h-2.161Z" transform="translate(-165.223 -1734.35)" fill="#333"/><path d="M189.437,1746.15l-2.377-3.406a4.427,4.427,0,0,1-.449.015h-2.626v3.391h-2.161v-11.634h4.787a6.437,6.437,0,0,1,2.634.5,3.838,3.838,0,0,1,1.721,1.431,4,4,0,0,1,.6,2.211,3.938,3.938,0,0,1-.641,2.259,3.8,3.8,0,0,1-1.836,1.413l2.676,3.823Zm-.781-9.209a3.319,3.319,0,0,0-2.144-.6h-2.527v4.638h2.527a3.288,3.288,0,0,0,2.144-.607,2.111,2.111,0,0,0,.731-1.72A2.089,2.089,0,0,0,188.656,1736.941Z" transform="translate(-162.791 -1734.35)" fill="#333"/><path d="M197.13,1744.338v1.812H188.4v-11.634H196.9v1.81h-6.333v3.027h5.618v1.779h-5.618v3.206Z" transform="translate(-157.219 -1734.35)" fill="#333"/><path d="M197.016,1745.62a5.7,5.7,0,0,1-2.227-2.137,6.243,6.243,0,0,1,.009-6.15,5.779,5.779,0,0,1,2.235-2.135,6.536,6.536,0,0,1,3.184-.772,6.673,6.673,0,0,1,2.61.5,5.329,5.329,0,0,1,1.995,1.448l-1.4,1.311a4.072,4.072,0,0,0-3.108-1.363,4.358,4.358,0,0,0-2.144.524,3.781,3.781,0,0,0-1.479,1.453,4.459,4.459,0,0,0,0,4.224,3.77,3.77,0,0,0,1.479,1.454,4.358,4.358,0,0,0,2.144.525,4.05,4.05,0,0,0,3.108-1.38l1.4,1.33a5.364,5.364,0,0,1-2,1.446,6.746,6.746,0,0,1-2.619.5A6.558,6.558,0,0,1,197.016,1745.62Z" transform="translate(-152.493 -1734.426)" fill="#333"/><path d="M204.022,1736.344h-3.856v-1.828h9.874v1.828h-3.856v9.806h-2.161Z" transform="translate(-147.256 -1734.35)" fill="#333"/><path d="M209,1745.62a5.724,5.724,0,0,1-2.244-2.144,6.182,6.182,0,0,1,0-6.134A5.726,5.726,0,0,1,209,1735.2a7.052,7.052,0,0,1,6.416,0,5.754,5.754,0,0,1,2.244,2.135,6.212,6.212,0,0,1,0,6.15,5.745,5.745,0,0,1-2.244,2.137,7.052,7.052,0,0,1-6.416,0Zm5.3-1.646a3.787,3.787,0,0,0,1.463-1.463,4.422,4.422,0,0,0,0-4.206,3.786,3.786,0,0,0-1.463-1.463,4.445,4.445,0,0,0-4.189,0,3.787,3.787,0,0,0-1.463,1.463,4.422,4.422,0,0,0,0,4.206,3.787,3.787,0,0,0,1.463,1.463,4.443,4.443,0,0,0,4.189,0Z" transform="translate(-142.362 -1734.426)" fill="#333"/><path d="M221.585,1746.15l-2.377-3.406a4.427,4.427,0,0,1-.449.015h-2.626v3.391h-2.161v-11.634h4.787a6.437,6.437,0,0,1,2.634.5,3.838,3.838,0,0,1,1.721,1.431,4,4,0,0,1,.6,2.211,3.937,3.937,0,0,1-.641,2.259,3.805,3.805,0,0,1-1.836,1.413l2.676,3.823Zm-.781-9.209a3.32,3.32,0,0,0-2.144-.6h-2.527v4.638h2.527a3.288,3.288,0,0,0,2.144-.607,2.111,2.111,0,0,0,.731-1.72A2.09,2.09,0,0,0,220.8,1736.941Z" transform="translate(-135.562 -1734.35)" fill="#333"/></g><circle cx="22.164" cy="22.164" r="22.164" transform="translate(76.068 60.952)" fill="#333"/><path d="M197.512,1688.064a.89.89,0,0,1-1.258,0L193.188,1685h7.388Z" transform="translate(-98.651 -1572.333)" fill="#fff"/><path d="M197.584,1741.947l-5.224-5.224,5.224-49.551,5.224,49.551Z" transform="translate(-99.352 -1570.493)" fill="#fff"/><g transform="translate(188.598 203.956)"><path d="M244.115,1734.516H249.2a7.3,7.3,0,0,1,3.308.722,5.35,5.35,0,0,1,2.244,2.045,6.229,6.229,0,0,1,0,6.1,5.352,5.352,0,0,1-2.244,2.045,7.3,7.3,0,0,1-3.308.722h-5.087Zm4.987,9.805a4.942,4.942,0,0,0,2.253-.489,3.508,3.508,0,0,0,1.5-1.4,4.491,4.491,0,0,0,0-4.206,3.508,3.508,0,0,0-1.5-1.4,4.942,4.942,0,0,0-2.253-.49h-2.826v7.977Z" transform="translate(-244.115 -1734.35)" fill="#333"/><path d="M260.276,1744.338v1.812h-8.727v-11.634h8.494v1.81H253.71v3.027h5.618v1.779H253.71v3.206Z" transform="translate(-237.819 -1734.35)" fill="#333"/><path d="M259.035,1746.01a5.364,5.364,0,0,1-1.987-1.014l.748-1.679a5.89,5.89,0,0,0,1.753.923,6.383,6.383,0,0,0,2.087.358,3.611,3.611,0,0,0,1.937-.417,1.255,1.255,0,0,0,.639-1.1,1.064,1.064,0,0,0-.358-.822,2.506,2.506,0,0,0-.9-.506c-.366-.124-.864-.26-1.5-.417a16.951,16.951,0,0,1-2.152-.632,3.516,3.516,0,0,1-1.415-.988,2.671,2.671,0,0,1-.589-1.819,3.118,3.118,0,0,1,.523-1.757,3.551,3.551,0,0,1,1.579-1.252,6.4,6.4,0,0,1,2.586-.465,8.429,8.429,0,0,1,2.094.264,5.828,5.828,0,0,1,1.779.765l-.682,1.681a6.661,6.661,0,0,0-1.6-.683,5.964,5.964,0,0,0-1.612-.233,3.36,3.36,0,0,0-1.9.434,1.329,1.329,0,0,0-.624,1.145,1.029,1.029,0,0,0,.358.814,2.58,2.58,0,0,0,.905.5q.549.181,1.5.414a16.02,16.02,0,0,1,2.128.624,3.624,3.624,0,0,1,1.42.99,2.6,2.6,0,0,1,.591,1.793,3.073,3.073,0,0,1-.525,1.747,3.556,3.556,0,0,1-1.587,1.245,6.454,6.454,0,0,1-2.593.466A8.862,8.862,0,0,1,259.035,1746.01Z" transform="translate(-233.161 -1734.426)" fill="#333"/><path d="M263.24,1734.516H265.4v11.634H263.24Z" transform="translate(-227.917 -1734.35)" fill="#333"/><path d="M274.438,1740.277h2.045v4.636a6.462,6.462,0,0,1-2.094,1.1,8.036,8.036,0,0,1-2.46.382,6.637,6.637,0,0,1-3.208-.772,5.745,5.745,0,0,1-2.244-2.137,6.212,6.212,0,0,1,0-6.15,5.742,5.742,0,0,1,2.253-2.135,6.689,6.689,0,0,1,3.232-.772,7.056,7.056,0,0,1,2.66.482,5.191,5.191,0,0,1,2.011,1.411l-1.363,1.332a4.366,4.366,0,0,0-3.208-1.332,4.552,4.552,0,0,0-2.185.515,3.762,3.762,0,0,0-1.5,1.448,4.138,4.138,0,0,0-.541,2.126,4.082,4.082,0,0,0,.541,2.1,3.888,3.888,0,0,0,1.5,1.463,4.4,4.4,0,0,0,2.168.532,4.7,4.7,0,0,0,2.394-.6Z" transform="translate(-225.866 -1734.426)" fill="#333"/><path d="M283.4,1734.516v11.634H281.62l-6.416-7.877v7.877h-2.144v-11.634h1.779l6.416,7.877v-7.877Z" transform="translate(-219.6 -1734.35)" fill="#333"/><path d="M289.076,1744.338v1.812h-8.727v-11.634h8.494v1.81H282.51v3.027h5.618v1.779H282.51v3.206Z" transform="translate(-213.426 -1734.35)" fill="#333"/><path d="M293.99,1746.15l-2.375-3.406a4.425,4.425,0,0,1-.449.015H288.54v3.391h-2.161v-11.634h4.787a6.437,6.437,0,0,1,2.634.5,3.848,3.848,0,0,1,1.721,1.431,4,4,0,0,1,.6,2.211,3.937,3.937,0,0,1-.641,2.259,3.806,3.806,0,0,1-1.836,1.413l2.676,3.823Zm-.779-9.209a3.323,3.323,0,0,0-2.144-.6H288.54v4.638h2.527a3.292,3.292,0,0,0,2.144-.607,2.111,2.111,0,0,0,.731-1.72A2.089,2.089,0,0,0,293.211,1736.941Z" transform="translate(-208.318 -1734.35)" fill="#333"/></g><circle cx="22.164" cy="22.164" r="22.164" transform="translate(209.978 60.952)" fill="#333"/><ellipse cx="15.988" cy="9.235" rx="15.988" ry="9.235" transform="matrix(0.95, -0.312, 0.312, 0.95, 207.737, 62.185)" fill="#bcbcbc"/><ellipse cx="3.079" cy="1.779" rx="3.079" ry="1.779" transform="matrix(0.95, -0.312, 0.312, 0.95, 218.634, 56.005)" fill="#bcbcbc"/><g transform="translate(322.303 203.956)"><path d="M325.231,1744.338v1.812h-8.725v-11.634H325v1.81h-6.331v3.027h5.618v1.779h-5.618v3.206Z" transform="translate(-316.506 -1734.35)" fill="#333"/><path d="M332.874,1734.516v11.634h-1.779l-6.416-7.877v7.877h-2.143v-11.634h1.779l6.416,7.877v-7.877Z" transform="translate(-311.399 -1734.35)" fill="#333"/><path d="M338.152,1740.277H340.2v4.636a6.434,6.434,0,0,1-2.093,1.1,8.046,8.046,0,0,1-2.46.382,6.639,6.639,0,0,1-3.21-.772,5.756,5.756,0,0,1-2.244-2.137,6.212,6.212,0,0,1,0-6.15,5.741,5.741,0,0,1,2.253-2.135,6.7,6.7,0,0,1,3.234-.772,7.07,7.07,0,0,1,2.66.482,5.184,5.184,0,0,1,2.01,1.411l-1.361,1.332a4.37,4.37,0,0,0-3.21-1.332,4.552,4.552,0,0,0-2.185.515,3.762,3.762,0,0,0-1.5,1.448,4.154,4.154,0,0,0-.539,2.126,4.1,4.1,0,0,0,.539,2.1,3.888,3.888,0,0,0,1.5,1.463,4.41,4.41,0,0,0,2.17.532,4.7,4.7,0,0,0,2.392-.6Z" transform="translate(-305.606 -1734.426)" fill="#333"/><path d="M336.773,1734.516h2.161v11.634h-2.161Z" transform="translate(-299.34 -1734.35)" fill="#333"/><path d="M349.983,1734.516v11.634H348.2l-6.416-7.877v7.877h-2.143v-11.634h1.777l6.418,7.877v-7.877Z" transform="translate(-296.908 -1734.35)" fill="#333"/><path d="M355.66,1744.338v1.812h-8.725v-11.634h8.492v1.81h-6.333v3.027h5.618v1.779h-5.618v3.206Z" transform="translate(-290.733 -1734.35)" fill="#333"/><path d="M361.691,1744.338v1.812h-8.727v-11.634h8.494v1.81h-6.333v3.027h5.619v1.779h-5.619v3.206Z" transform="translate(-285.627 -1734.35)" fill="#333"/><path d="M366.607,1746.15l-2.377-3.406a4.429,4.429,0,0,1-.449.015h-2.626v3.391h-2.161v-11.634h4.787a6.437,6.437,0,0,1,2.634.5,3.848,3.848,0,0,1,1.721,1.431,4,4,0,0,1,.6,2.211,3.937,3.937,0,0,1-.641,2.259,3.805,3.805,0,0,1-1.836,1.413l2.676,3.823Zm-.781-9.209a3.32,3.32,0,0,0-2.144-.6h-2.527v4.638h2.527a3.288,3.288,0,0,0,2.144-.607,2.111,2.111,0,0,0,.731-1.72A2.089,2.089,0,0,0,365.826,1736.941Z" transform="translate(-280.52 -1734.35)" fill="#333"/></g><circle cx="22.256" cy="22.256" r="22.256" transform="translate(343.532 60.859)" fill="#333"/><rect width="11.082" height="7.388" transform="translate(351.276 78.498)" fill="none" stroke="#fff" stroke-miterlimit="10" stroke-width="0.5"/><rect width="11.082" height="7.388" transform="translate(369.746 78.498)" fill="none" stroke="#fff" stroke-miterlimit="10" stroke-width="0.5"/><rect width="5.541" height="0.923" transform="translate(345.379 81.73)" fill="#fff"/><rect width="5.541" height="0.923" transform="translate(380.841 81.73)" fill="#fff"/><rect width="7.388" height="0.923" transform="translate(362.358 81.73)" fill="#fff"/><g transform="translate(429.06 209.22)" opacity="0.12"><path d="M375.214,1760.314h29.127a.906.906,0,0,0,.907-.907v-17.223h-30.94v17.223A.907.907,0,0,0,375.214,1760.314Zm9.765-4.267a.906.906,0,0,1-1.282,1.282l-3.626-3.626a.905.905,0,0,1,0-1.282l3.626-3.625a.906.906,0,0,1,1.282,1.282l-2.985,2.985Zm7.423-6.206-3.626,7.251a.907.907,0,0,1-1.623-.811l3.628-7.251a.906.906,0,0,1,1.622.811Zm7.081,3.862-3.626,3.626a.906.906,0,0,1-1.282-1.282l2.985-2.985-2.985-2.985a.906.906,0,0,1,1.282-1.282l3.626,3.625A.905.905,0,0,1,399.483,1753.7Zm-20.583-8.8h21.754a.906.906,0,1,1,0,1.812H378.9a.906.906,0,1,1,0-1.812Z" transform="translate(-374.307 -1733.119)" fill="#333"/><path d="M405.247,1738.183a.906.906,0,0,0-.907-.907H375.214a.907.907,0,0,0-.907.907v6.346h30.94Zm-17.284,3.626H378.9a.906.906,0,1,1,0-1.812h9.063a.906.906,0,1,1,0,1.812Zm5.439,0a.906.906,0,1,1,.907-.905A.906.906,0,0,1,393.4,1741.808Zm3.626,0a.906.906,0,1,1,.907-.905A.9.9,0,0,1,397.028,1741.808Zm3.626,0a.906.906,0,1,1,.907-.905A.9.9,0,0,1,400.654,1741.808Z" transform="translate(-374.307 -1737.276)" fill="#333"/></g><g transform="translate(149.477 143.558)" opacity="0.12"><path d="M227.892,1707.888h12.142v1.518H227.892Z" transform="translate(-218.735 -1696.505)" fill="#333"/><path d="M228.462,1707.893h-3.035v7.589h3.035Z" transform="translate(-220.822 -1696.51)" fill="#333"/><path d="M223.693,1721.012h24.386a.759.759,0,0,0,.759-.759v-14.419h-25.9v14.419A.759.759,0,0,0,223.693,1721.012Zm2.327-12.144a.757.757,0,0,1,.759-.757h18.213a.757.757,0,0,1,.759.757v9.107a.759.759,0,0,1-.759.759H226.779a.759.759,0,0,1-.759-.759Z" transform="translate(-222.934 -1698.245)" fill="#333"/><path d="M230.358,1709.532h3.035v4.553h-3.035Z" transform="translate(-216.646 -1695.113)" fill="#333"/><path d="M227.892,1709.532h3.036v4.553h-3.036Z" transform="translate(-218.735 -1695.113)" fill="#333"/><path d="M232.823,1709.532h3.035v4.553h-3.035Z" transform="translate(-214.558 -1695.113)" fill="#333"/><path d="M248.838,1702.484a.759.759,0,0,0-.759-.759H223.693a.759.759,0,0,0-.759.759v5.312h25.9Zm-14.469,3.035h-7.589a.758.758,0,1,1,0-1.516h7.589a.758.758,0,1,1,0,1.516Zm4.592,0a.758.758,0,1,1,.757-.757A.758.758,0,0,1,238.96,1705.519Zm3.035,0a.758.758,0,1,1,.759-.757A.758.758,0,0,1,241.995,1705.519Zm3.036,0a.758.758,0,1,1,.757-.757A.758.758,0,0,1,245.031,1705.519Z" transform="translate(-222.934 -1701.725)" fill="#333"/></g><g transform="translate(294.41 140.561)" opacity="0.12"><path d="M310.388,1707.138a3.132,3.132,0,0,0-.469.6l-1.478,2.455-1.1,1.1a.783.783,0,0,0,.026,1.134.8.8,0,0,0,1.1-.041l1.081-1.081,2.456-1.478a3.286,3.286,0,0,0,.6-.469l.837-.838-2.218-2.216Z" transform="translate(-296.567 -1694.852)" fill="#333"/><path d="M317.168,1703.626a1.568,1.568,0,0,0-2.218-2.216l-1.108,1.108,2.216,2.218Z" transform="translate(-290.869 -1699.384)" fill="#333"/><path d="M309.94,1708.5l6.1-6.1,2.216,2.218-6.1,6.1Z" transform="translate(-294.174 -1698.156)" fill="#333"/><path d="M305.949,1704.594v-4.244l-4.3,4.244Z" transform="translate(-301.193 -1699.892)" fill="#333"/><path d="M304.579,1726.857a3.183,3.183,0,0,0,3.149-3.184v-2.3a.784.784,0,0,1,.783-.783h13.379v-8.213c-.373.375-3.5,3.5-3.339,3.341,0,0-.682.571-.9.7l-2.292,1.38-.96.96a2.33,2.33,0,0,1-3.134.159H305.4a.8.8,0,0,1-.805-.748.783.783,0,0,1,.783-.82h5.033a2.07,2.07,0,0,1,.379-1.568H305.4a.8.8,0,0,1-.805-.746.783.783,0,0,1,.783-.822h6.813l.944-1.568H305.4a.8.8,0,0,1-.805-.746.783.783,0,0,1,.783-.822h8.945l1.566-1.566H305.4a.8.8,0,0,1-.805-.748.782.782,0,0,1,.783-.82h12.079l1.568-1.568H310.1a.8.8,0,0,1-.805-.746.785.785,0,0,1,.783-.822h10.513l1.3-1.3v-2.621a.784.784,0,0,0-.785-.783H307.728v5.486a.784.784,0,0,1-.783.785H301.4v17.351A3.181,3.181,0,0,0,304.579,1726.857Z" transform="translate(-301.404 -1700.102)" fill="#333"/><path d="M306.238,1712.042v1.568a4.665,4.665,0,0,1-1.223,3.134h14.6a2.353,2.353,0,0,0,2.353-2.351v-1.568a.784.784,0,0,0-.785-.783Z" transform="translate(-298.346 -1689.989)" fill="#333"/></g><g transform="translate(302.968 36.941)" opacity="0.12"><path d="M321.007,1656.229l-.475-1.426H311.9l-.475,1.426h-2.336a.712.712,0,1,0,0,1.424h14.251a.712.712,0,1,0,0-1.424Z" transform="translate(-304.055 -1634.85)" fill="#333"/><path d="M308.379,1647.858h2.85v1.426h-2.85Z" transform="translate(-304.055 -1640.732)" fill="#333"/><path d="M308.379,1646.315h2.85v1.426h-2.85Z" transform="translate(-304.055 -1642.039)" fill="#333"/><path d="M308.379,1649.4h2.85v1.424h-2.85Z" transform="translate(-304.055 -1639.425)" fill="#333"/><path d="M316.808,1647.087a.712.712,0,1,0,.713.711A.712.712,0,0,0,316.808,1647.087Z" transform="translate(-297.52 -1641.385)" fill="#333"/><path d="M330.363,1646.137a2.141,2.141,0,0,0-2.139-2.137H308.177a2.14,2.14,0,0,0-2.139,2.137v12.114h24.325Zm-7.887.713a.713.713,0,1,1-.713.713A.713.713,0,0,1,322.476,1646.85Zm-2.85,0a.713.713,0,1,1-.713.713A.712.712,0,0,1,319.626,1646.85Zm-4.989,9.264a.713.713,0,0,1-.713.713h-4.276a.713.713,0,0,1-.713-.713v-8.551a.713.713,0,0,1,.713-.713h4.276a.713.713,0,0,1,.713.713Zm2.137-9.264a.713.713,0,1,1-.713.713A.713.713,0,0,1,316.774,1646.85Zm9.056,9.769a.716.716,0,0,1-1.008,0l-.92-.922-.922.922a.7.7,0,0,1-.574.205.711.711,0,0,1-.523-.314l-2.257-3.385-2.259,3.385a.713.713,0,1,1-1.186-.79l2.852-4.276a.739.739,0,0,1,1.186,0l2.368,3.553.811-.811a.71.71,0,0,1,1.007,0l1.426,1.424A.712.712,0,0,1,325.83,1656.618Zm-.5-4.067a2.138,2.138,0,1,1,2.139-2.139A2.14,2.14,0,0,1,325.326,1652.551Z" transform="translate(-306.038 -1644)" fill="#333"/><path d="M308.177,1655.338h20.047a2.141,2.141,0,0,0,2.139-2.137v-.713H306.038v.713A2.14,2.14,0,0,0,308.177,1655.338Z" transform="translate(-306.038 -1636.811)" fill="#333"/></g><g transform="translate(0 94.958)" opacity="0.12"><path d="M162.037,1688.912v-.837H152.013v.837a2.507,2.507,0,0,0,2.5,2.5h5.013A2.508,2.508,0,0,0,162.037,1688.912Z" transform="translate(-133.525 -1664.687)" fill="#333"/><path d="M152.013,1683.553h10.024v6.682H152.013Z" transform="translate(-133.525 -1668.517)" fill="#333"/><path d="M162.037,1683.345a2.51,2.51,0,0,0-2.506-2.507h-5.013a2.508,2.508,0,0,0-2.5,2.507v.834h10.024Z" transform="translate(-133.525 -1670.815)" fill="#333"/><path d="M158.82,1687.942a4.181,4.181,0,0,1,4.176-4.176h5.013a4.134,4.134,0,0,1,2.506.855v-6.7a2.51,2.51,0,0,0-2.506-2.506h-23.5a2.508,2.508,0,0,0-2.5,2.506v14.2H158.82Z" transform="translate(-142.003 -1675.412)" fill="#333"/><path d="M144.507,1688.7H158.82v-3.341H142v.835A2.508,2.508,0,0,0,144.507,1688.7Z" transform="translate(-142.003 -1666.984)" fill="#333"/><path d="M156.5,1688.912v-.837h-7.619l-.556,1.671h-2.741a.835.835,0,0,0,0,1.67h11.773A4.133,4.133,0,0,1,156.5,1688.912Z" transform="translate(-139.68 -1664.687)" fill="#333"/></g><g transform="translate(182.446 232.167)" opacity="0.12"><path d="M263.77,1760.029a9.175,9.175,0,0,0-3.06-4.669v9.469h.883a.828.828,0,0,1,0,1.657h-13.3a.828.828,0,0,1,0-1.657h.827v-9.469a9.077,9.077,0,0,0-3.005,4.669,6.655,6.655,0,0,0-5.329,6.457,6.727,6.727,0,0,0,6.679,6.679h14.957a6.679,6.679,0,0,0,6.623-6.679A6.606,6.606,0,0,0,263.77,1760.029Z" transform="translate(-240.784 -1744.906)" fill="#333"/><path d="M248.813,1756.005a.827.827,0,1,0,.827.827A.829.829,0,0,0,248.813,1756.005Z" transform="translate(-234.684 -1744.36)" fill="#333"/><path d="M254.471,1754.005a2.483,2.483,0,0,0-2.484-2.482h-3.312a2.483,2.483,0,0,0-2.482,2.482v.83h8.278Z" transform="translate(-236.203 -1748.156)" fill="#333"/><path d="M254.471,1754.212h-8.278v11.59h8.278Zm-4.139,9.935a.828.828,0,1,1,.827-.827A.827.827,0,0,1,250.332,1764.147Zm0-3.312a2.484,2.484,0,1,1,2.484-2.484A2.487,2.487,0,0,1,250.332,1760.835Z" transform="translate(-236.203 -1745.878)" fill="#333"/><path d="M244.332,1753.067a.829.829,0,0,0,.827-.829v-1.71a.828.828,0,0,0-1.657,0v1.71A.829.829,0,0,0,244.332,1753.067Z" transform="translate(-238.481 -1749.7)" fill="#333"/><path d="M242.508,1758.42a.827.827,0,0,0,.827-.827v-1.655a.827.827,0,1,0-1.655,0v1.655A.826.826,0,0,0,242.508,1758.42Z" transform="translate(-240.024 -1745.119)" fill="#333"/><path d="M244.332,1757.386a.827.827,0,0,0,.827-.827v-3.312a.828.828,0,0,0-1.657,0v3.312A.828.828,0,0,0,244.332,1757.386Z" transform="translate(-238.481 -1747.397)" fill="#333"/><path d="M253.325,1753.067a.828.828,0,0,0,.827-.829v-1.71a.827.827,0,0,0-1.655,0v1.71A.829.829,0,0,0,253.325,1753.067Z" transform="translate(-230.863 -1749.7)" fill="#333"/><path d="M253.325,1757.386a.826.826,0,0,0,.827-.827v-3.312a.827.827,0,0,0-1.655,0v3.312A.827.827,0,0,0,253.325,1757.386Z" transform="translate(-230.863 -1747.397)" fill="#333"/><path d="M242.508,1756.49a.829.829,0,0,0,.827-.827v-3.312a.827.827,0,0,0-1.655,0v3.312A.827.827,0,0,0,242.508,1756.49Z" transform="translate(-240.024 -1748.156)" fill="#333"/><path d="M255.118,1758.42a.826.826,0,0,0,.827-.827v-1.655a.827.827,0,1,0-1.655,0v1.655A.826.826,0,0,0,255.118,1758.42Z" transform="translate(-229.344 -1745.119)" fill="#333"/><path d="M255.118,1756.49a.827.827,0,0,0,.827-.827v-3.312a.827.827,0,0,0-1.655,0v3.312A.827.827,0,0,0,255.118,1756.49Z" transform="translate(-229.344 -1748.156)" fill="#333"/></g><g transform="translate(352.656 237.146)" opacity="0.12"><path d="M333.8,1757.527h.855v2.566a.855.855,0,1,0,1.71,0v-2.566h.855a.854.854,0,0,0,.855-.855v-.855h2.565a.855.855,0,0,0,0-1.71h-2.565v-.855a.854.854,0,0,0-.855-.855H333.8a.854.854,0,0,0-.855.855v3.421A.854.854,0,0,0,333.8,1757.527Z" transform="translate(-332.94 -1752.396)" fill="#333"/><path d="M352.665,1753.251a.854.854,0,0,0-.855-.855h-3.421a.854.854,0,0,0-.855.855v.855h-2.565a.855.855,0,0,0,0,1.71h2.565v.855a.854.854,0,0,0,.855.855h.855v2.566a.855.855,0,1,0,1.71,0v-2.566h.855a.854.854,0,0,0,.855-.855Z" transform="translate(-323.477 -1752.396)" fill="#333"/><path d="M354.644,1768v-11.97a.855.855,0,0,0-.855-.855H336.573a.855.855,0,0,0-.855.855V1768a.855.855,0,0,0,.855.855h17.216A.855.855,0,0,0,354.644,1768Z" transform="translate(-330.587 -1750.043)" fill="#333"/><path d="M348.389,1769.28h3.421a.855.855,0,0,0,.855-.855V1765a.855.855,0,0,0-.855-.855h-.855v-2.566a.855.855,0,0,0-1.71,0v2.566h-.855a.855.855,0,0,0-.855.855v.855h-2.565a.855.855,0,0,0,0,1.71h2.565v.855A.855.855,0,0,0,348.389,1769.28Z" transform="translate(-323.477 -1745.337)" fill="#333"/><path d="M333.8,1769.28h3.421a.855.855,0,0,0,.855-.855v-.855h2.565a.855.855,0,0,0,0-1.71h-2.565V1765a.855.855,0,0,0-.855-.855h-.855v-2.566a.855.855,0,0,0-1.71,0v2.566H333.8a.855.855,0,0,0-.855.855v3.421A.855.855,0,0,0,333.8,1769.28Z" transform="translate(-332.94 -1745.337)" fill="#333"/><path d="M339.351,1763.507a.855.855,0,0,0,0,1.71h1.768a.855.855,0,0,0,0-1.71Z" transform="translate(-328.234 -1742.985)" fill="#333"/><path d="M342.16,1763.507a.855.855,0,0,0,0,1.71h1.766a.855.855,0,0,0,0-1.71Z" transform="translate(-325.855 -1742.985)" fill="#333"/><path d="M341.119,1755.032a.855.855,0,0,0,0-1.71h-1.768a.855.855,0,0,0,0,1.71Z" transform="translate(-328.234 -1751.612)" fill="#333"/><path d="M343.926,1755.032a.855.855,0,0,0,0-1.71H342.16a.855.855,0,0,0,0,1.71Z" transform="translate(-325.855 -1751.612)" fill="#333"/><path d="M347.746,1761.372a.856.856,0,0,0,.855-.855v-1.71a.855.855,0,1,0-1.71,0v1.71A.856.856,0,0,0,347.746,1761.372Z" transform="translate(-321.124 -1747.69)" fill="#333"/></g><g transform="translate(416.377 128.493)" opacity="0.12"><path d="M372.081,1711.949l.641-.641-3.845-3.847-.641.641a2.72,2.72,0,0,0,3.845,3.847Z" transform="translate(-367.44 -1681.802)" fill="#333"/><path d="M372.837,1704.006l-2.536,2.536,3.845,3.845,2.536-2.536a13.672,13.672,0,0,1-3.845-3.845Z" transform="translate(-365.018 -1684.729)" fill="#333"/><path d="M368.912,1707.355l1.284-1.282,3.845,3.845-1.284,1.283Z" transform="translate(-366.194 -1682.978)" fill="#333"/><path d="M376.237,1698.367a6.353,6.353,0,0,0,0,8.974,6.509,6.509,0,0,0,8.974,0,6.346,6.346,0,0,0-8.974-8.974Zm8.751,3.254-1.814,3.625a.905.905,0,0,1-1.622,0l-1-2-1,2a.943.943,0,0,1-1.622,0l-1.814-3.625a.907.907,0,0,1,1.622-.811l1,2,1-2a.945.945,0,0,1,1.622,0l1,2,1-2a.907.907,0,0,1,1.622.811Z" transform="translate(-361.562 -1691.076)" fill="#333"/><path d="M374.884,1697.014a11.784,11.784,0,1,0,16.665,0A11.8,11.8,0,0,0,374.884,1697.014Zm14.1,14.1a8.159,8.159,0,1,1,0-11.538A8.167,8.167,0,0,1,388.985,1711.115Z" transform="translate(-364.054 -1693.569)" fill="#333"/></g><g transform="translate(164.426 87.799)" opacity="0.12"><path d="M251.9,1676.3a3.309,3.309,0,0,0-4.682,0l-2.342,2.342a1.655,1.655,0,1,0-2.342,2.34l4.684,4.684a1.656,1.656,0,0,0,2.342-2.342l2.34-2.342A3.308,3.308,0,0,0,251.9,1676.3Z" transform="translate(-229.691 -1675.326)" fill="#333"/><path d="M238.115,1685.6a3.543,3.543,0,0,0,3.533-.26,5.279,5.279,0,0,1,6,.093l1.734-1.732-4.684-4.684Z" transform="translate(-233.025 -1672.196)" fill="#333"/><path d="M243.222,1688.647l5.26-5.26a3.6,3.6,0,0,0-3.881.083,5.3,5.3,0,0,1-5.694.124l-.369.371a3.293,3.293,0,0,0-.846,3.186l-1.5,1.5a1.656,1.656,0,0,0,2.342,2.342l1.5-1.5A3.3,3.3,0,0,0,243.222,1688.647Z" transform="translate(-235.06 -1668.944)" fill="#333"/><path d="M235.981,1688.245a5.92,5.92,0,0,0-.622,2.063,2.483,2.483,0,0,0,4.967,0,6.361,6.361,0,0,0-.706-2.24,3.25,3.25,0,0,1-3.639.177Z" transform="translate(-235.359 -1664.533)" fill="#333"/></g><g transform="translate(0.521 217.69)" opacity="0.12"><path d="M155.191,1755.872l-1.67-.033.12-5.846a.836.836,0,0,0-.818-.853l-1.672-.033a.834.834,0,0,0-.851.818l-.12,5.846-1.67-.033a.832.832,0,0,0-.694,1.321l3.238,5.1a.864.864,0,0,0,1.335.026l3.443-4.961a.835.835,0,0,0-.641-1.35Z" transform="translate(-137.734 -1735.726)" fill="#333"/><path d="M164.192,1748.733l-.347-.008a9.166,9.166,0,0,0-17.845.432,6.658,6.658,0,0,0,2.887,12.63l1.838.039c.037-.094.055-.192.1-.283a2.5,2.5,0,0,1,2.27-1.341c.006-.248.109-5.273.1-5.011l-.835-.017a.835.835,0,1,1,.033-1.669l8.352.17a.835.835,0,1,1-.035,1.67l-.835-.017-.1,5.011a2.491,2.491,0,0,1,2.211,1.43,2.6,2.6,0,0,1,.092.288l1.838.039a6.683,6.683,0,1,0,.273-13.363Z" transform="translate(-142.285 -1741.862)" fill="#333"/></g><g transform="translate(276.268 89.218)" opacity="0.12"><path d="M296.87,1683.917a2.565,2.565,0,1,0-2.565-2.565A2.568,2.568,0,0,0,296.87,1683.917Zm0-3.421a.855.855,0,1,1-.855.855A.854.854,0,0,1,296.87,1680.5Z" transform="translate(-282.276 -1666.814)" fill="#333"/><path d="M299.223,1691.4a7.7,7.7,0,1,0-7.7-7.7A7.705,7.705,0,0,0,299.223,1691.4Zm0-11.972a4.276,4.276,0,1,1-4.276,4.276A4.281,4.281,0,0,1,299.223,1679.428Z" transform="translate(-284.629 -1669.167)" fill="#333"/><path d="M296.086,1677.435a.855.855,0,0,0,.855-.855v-3.421a.855.855,0,1,0-1.71,0v3.421A.855.855,0,0,0,296.086,1677.435Z" transform="translate(-281.491 -1672.304)" fill="#333"/><path d="M290.148,1675.776l3.421,1.71a.855.855,0,1,0,.765-1.529l-3.421-1.71a.855.855,0,0,0-.765,1.529Z" transform="translate(-286.197 -1670.735)" fill="#333"/><path d="M300.173,1677.486l3.421-1.71a.855.855,0,0,0-.765-1.529l-3.421,1.71a.855.855,0,0,0,.765,1.529Z" transform="translate(-278.354 -1670.735)" fill="#333"/><path d="M294.7,1688.06a9.35,9.35,0,0,1,0-10.812,35.121,35.121,0,0,0-6.649,4.791.856.856,0,0,0,0,1.23A35.339,35.339,0,0,0,294.7,1688.06Z" transform="translate(-287.792 -1668.116)" fill="#333"/><path d="M299.855,1677.248a9.35,9.35,0,0,1,0,10.812,35.34,35.34,0,0,0,6.649-4.791.857.857,0,0,0,0-1.23A35.123,35.123,0,0,0,299.855,1677.248Z" transform="translate(-277.575 -1668.116)" fill="#333"/></g><g transform="translate(15.805 146.349)" opacity="0.12"><path d="M157.72,1718.549a.834.834,0,0,0,1.407,0c.792-1.24,2.637-5.157,2.637-6.514a3.341,3.341,0,1,0-6.682,0C155.083,1713.39,156.928,1717.309,157.72,1718.549Z" transform="translate(-146.729 -1698.614)" fill="#333"/><path d="M160.548,1704.071a.837.837,0,0,0-.837-.835H156.37a.836.836,0,0,0-.835.835v4.233h5.013Z" transform="translate(-146.346 -1703.236)" fill="#333"/><path d="M155.535,1709.252a4.858,4.858,0,0,1,5.013,0v-2.368h-5.013Z" transform="translate(-146.346 -1700.146)" fill="#333"/><path d="M153.066,1713.246H151.4a.837.837,0,0,0-.837.835v1.672a.836.836,0,0,0,.837.835h2.5v-2.507A.835.835,0,0,0,153.066,1713.246Z" transform="translate(-150.56 -1694.758)" fill="#333"/><path d="M154.875,1715.055h-2.506v2.506a.836.836,0,0,0,.837.835h2.5v-2.5A.835.835,0,0,0,154.875,1715.055Z" transform="translate(-149.028 -1693.225)" fill="#333"/><path d="M154.178,1719.37a.836.836,0,0,0,.837.835h1.67a.834.834,0,0,0,.835-.835v-2.506h-3.341Z" transform="translate(-147.496 -1691.693)" fill="#333"/><path d="M158.633,1720.205h1.67a.836.836,0,0,0,.837-.835v-2.506H157.8v2.506A.836.836,0,0,0,158.633,1720.205Z" transform="translate(-144.431 -1691.693)" fill="#333"/><path d="M158.493,1715.055h-1.67a.837.837,0,0,0-.837.837v2.5h3.341v-2.5A.835.835,0,0,0,158.493,1715.055Z" transform="translate(-145.963 -1693.225)" fill="#333"/><path d="M162.947,1717.561v-2.506h-2.506a.835.835,0,0,0-.835.837v2.5h2.5A.836.836,0,0,0,162.947,1717.561Z" transform="translate(-142.898 -1693.225)" fill="#333"/><path d="M164.756,1714.081a.837.837,0,0,0-.837-.835h-1.67a.835.835,0,0,0-.835.835v2.507h2.5a.836.836,0,0,0,.837-.835Z" transform="translate(-141.366 -1694.758)" fill="#333"/></g><g transform="translate(149.871 29.553)" opacity="0.12"><path d="M250.94,1646.766l-13.3-6.679a.807.807,0,0,0-.73,0l-13.3,6.679a.831.831,0,0,0,0,1.49l5.186,2.565,3.328-1.671a.852.852,0,0,1,1.127.38.834.834,0,0,1-.38,1.11l-2.218,1.108,6.258,3.131a.859.859,0,0,0,.73,0l6.258-3.131-2.218-1.108a.835.835,0,0,1-.38-1.11.85.85,0,0,1,1.125-.38l3.328,1.671,5.188-2.565a.831.831,0,0,0,0-1.49Zm-11.265,1.938a.833.833,0,0,1-1.108.38l-1.293-.646-1.291.646a.829.829,0,0,1-.728-1.49l1.655-.827a.805.805,0,0,1,.73,0l1.655.827A.838.838,0,0,1,239.676,1648.7Z" transform="translate(-223.147 -1640)" fill="#333"/><path d="M250.94,1651.588l-3.336-1.642-9.226,4.614a2.654,2.654,0,0,1-1.1.257,2.516,2.516,0,0,1-1.012-.216l-9.314-4.654-3.337,1.642a.829.829,0,0,0,0,1.489l13.3,6.679a.841.841,0,0,0,.73,0l13.3-6.679a.829.829,0,0,0,0-1.489Z" transform="translate(-223.147 -1631.576)" fill="#333"/><path d="M250.94,1648l-3.334-1.64-8.291,4.139a.826.826,0,0,1-.754,1.47l-1.287-.643-1.284.643a.826.826,0,0,1-.755-1.47l-8.293-4.139-3.332,1.64a.831.831,0,0,0,0,1.49l5.186,2.565,3.328-1.671a.852.852,0,0,1,1.127.38.963.963,0,0,1,.083.364.84.84,0,0,1-.464.746l-2.218,1.108,6.258,3.129a.841.841,0,0,0,.73,0l6.258-3.129-2.218-1.108a.835.835,0,0,1-.38-1.11.85.85,0,0,1,1.125-.38l3.328,1.671,5.188-2.565a.831.831,0,0,0,0-1.49Z" transform="translate(-223.147 -1634.612)" fill="#333"/></g><g transform="translate(20.557 33.247)" opacity="0.12"><path d="M159.495,1649.236h5.013v1.671h-5.013Z" transform="translate(-147.745 -1635.871)" fill="#333"/><path d="M176.264,1655.059h-4.7v.835a.834.834,0,0,1-.835.835h-6.682a.836.836,0,0,1-.837-.835v-.835h-4.7a2.5,2.5,0,0,1-2.377-1.714l-3-9.011v18.243a2.51,2.51,0,0,0,2.506,2.506h23.5a2.508,2.508,0,0,0,2.5-2.506v-18.243l-3,9.011A2.5,2.5,0,0,1,176.264,1655.059Z" transform="translate(-153.133 -1640.023)" fill="#333"/><path d="M170.072,1642H163.39a2.51,2.51,0,0,0-2.506,2.507v.834h-6.972l3.151,9.453a.836.836,0,0,0,.792.571h4.7v-.835a.836.836,0,0,1,.837-.835h6.682a.834.834,0,0,1,.835.835v.835h4.7a.832.832,0,0,0,.792-.571l3.151-9.453h-6.97v-.834A2.51,2.51,0,0,0,170.072,1642Zm-7.519,3.341v-.834a.836.836,0,0,1,.837-.835h6.682a.835.835,0,0,1,.835.835v.834Z" transform="translate(-152.474 -1642)" fill="#333"/></g><g transform="translate(421.672 50.374)" opacity="0.12"><path d="M383.08,1660.854a2.709,2.709,0,0,0,2.556,1.813h3.747a2.72,2.72,0,0,0,0-5.439h-3.747a2.71,2.71,0,0,0-2.556,1.814H381.1v1.812Z" transform="translate(-361.162 -1646.229)" fill="#333"/><path d="M383.08,1665.762a2.71,2.71,0,0,0,2.556,1.814h3.747a2.72,2.72,0,0,0,0-5.439h-3.747a2.71,2.71,0,0,0-2.556,1.814H381.1v1.812Z" transform="translate(-361.162 -1642.072)" fill="#333"/><path d="M377.027,1659.117a.906.906,0,1,0-.905.905A.907.907,0,0,0,377.027,1659.117Z" transform="translate(-366.15 -1645.397)" fill="#333"/><path d="M376.731,1660.173a2.709,2.709,0,0,0-2.235,1.2,4.375,4.375,0,0,0,4.468,0A2.708,2.708,0,0,0,376.731,1660.173Z" transform="translate(-366.759 -1643.735)" fill="#333"/><path d="M377.784,1656.247a4.538,4.538,0,0,0-4.532,4.533,4.483,4.483,0,0,0,.918,2.7,4.566,4.566,0,0,1,1.361-1.184,2.72,2.72,0,1,1,4.5,0,4.571,4.571,0,0,1,1.363,1.184,4.51,4.51,0,0,0-3.615-7.237Z" transform="translate(-367.813 -1647.06)" fill="#333"/><path d="M386.551,1663.4a6.345,6.345,0,1,1,0-1.812h3.7v-7.373H370.307v20.064h19.942v-1.814H387.53a.906.906,0,1,1,0-1.812h2.719V1663.4Zm-9.9,9.065a.906.906,0,1,1,.907-.905A.9.9,0,0,1,376.651,1672.468Zm3.627,0a.906.906,0,1,1,.905-.905A.9.9,0,0,1,380.279,1672.468Zm3.626,0a.906.906,0,1,1,.907-.905A.9.9,0,0,1,383.9,1672.468Z" transform="translate(-370.307 -1648.779)" fill="#333"/><path d="M373.026,1669.689h14.5a2.723,2.723,0,0,0,2.719-2.721v-.907H370.307v.907A2.723,2.723,0,0,0,373.026,1669.689Z" transform="translate(-370.307 -1638.747)" fill="#333"/><path d="M390.249,1653.994a2.723,2.723,0,0,0-2.719-2.721h-14.5a2.723,2.723,0,0,0-2.719,2.721v.907h19.942Z" transform="translate(-370.307 -1651.273)" fill="#333"/></g><g transform="translate(80.337)" opacity="0.12"><path d="M190.208,1630.546a2.618,2.618,0,0,0,.547,2.371,4.111,4.111,0,0,1,1.1,2.634h1.732v-.146a3.527,3.527,0,0,1,1.029-2.409,2.6,2.6,0,1,0-4.409-2.451Z" transform="translate(-181.582 -1620.081)" fill="#333"/><path d="M194.344,1624.25a11.257,11.257,0,0,0-5.38,19.127v9.309a.865.865,0,0,0,.864.866h10.391a.866.866,0,0,0,.866-.866v-4.444h4.329a2.6,2.6,0,0,0,2.6-2.6v-2.927l2.985-1.492a.862.862,0,0,0,.332-1.254l-3.321-4.983A11.27,11.27,0,0,0,194.344,1624.25Zm4.143,20.529h-3.463a.866.866,0,1,1,0-1.732h3.463a.866.866,0,1,1,0,1.732Zm-.864-14.72v.968a4.282,4.282,0,0,1,1.5.635l.693-.693a.866.866,0,0,1,1.225,1.225l-.691.691a4.287,4.287,0,0,1,.639,1.5h.96a.866.866,0,0,1,0,1.732h-.957a4.311,4.311,0,0,1-1.079,2.095,1.86,1.86,0,0,0-.561,1.223v1.012a.866.866,0,0,1-.866.866h-3.463a.866.866,0,0,1-.866-.866v-.809a2.429,2.429,0,0,0-.682-1.561,4.293,4.293,0,0,1-.951-1.96h-.964a.866.866,0,1,1,0-1.732h.972c.015-.076.011-.15.03-.225a4.082,4.082,0,0,1,.6-1.282l-.687-.687a.866.866,0,0,1,1.225-1.225l.7.7a4.143,4.143,0,0,1,1.433-.643c.022,0,.043,0,.065-.006v-.958a.866.866,0,1,1,1.732,0Z" transform="translate(-185.5 -1623.999)" fill="#333"/></g><g transform="translate(264.112 245.649)" opacity="0.12"><path d="M293.4,1762.688a.865.865,0,1,0,.866.864A.866.866,0,0,0,293.4,1762.688Z" transform="translate(-278.621 -1752.182)" fill="#333"/><path d="M313.628,1762.688h-3.463a.865.865,0,0,0-.866.864v3.463a.866.866,0,0,0,.866.866h.822a11.244,11.244,0,0,1-22.422,0h.822a.866.866,0,0,0,.866-.866v-3.463a.865.865,0,0,0-.866-.864h-3.463a.915.915,0,0,0-.924.864v3.463a.917.917,0,0,0,.924.866h.911a12.982,12.982,0,0,0,6.49,10.389h-3.072v-.866a.865.865,0,0,0-.866-.864h-3.463a.915.915,0,0,0-.924.864v3.463a.917.917,0,0,0,.924.866h3.463a.866.866,0,0,0,.866-.866V1780H309.3v.864a.866.866,0,0,0,.866.866h3.463a.917.917,0,0,0,.924-.866V1777.4a.915.915,0,0,0-.924-.864h-3.463a.865.865,0,0,0-.866.864v.866h-3.072a12.982,12.982,0,0,0,6.49-10.389h.911a.917.917,0,0,0,.924-.866v-3.463A.915.915,0,0,0,313.628,1762.688Z" transform="translate(-285 -1752.182)" fill="#333"/><path d="M298.448,1757h-6.926a.866.866,0,0,0-.866.866v2.713h8.659v-2.713A.866.866,0,0,0,298.448,1757Z" transform="translate(-280.21 -1757)" fill="#333"/><path d="M299.135,1777.31c1.274-3.45,2.373-6.429,4.976-9.031a.863.863,0,0,0,0-1.225,10.815,10.815,0,0,1-2.935-5.447h.591a.866.866,0,0,0,0-1.732H291.378a.865.865,0,0,0,0,1.731h.593a10.813,10.813,0,0,1-2.935,5.448.863.863,0,0,0,0,1.225c2.6,2.6,3.7,5.582,4.976,9.031.168.455.353.926.528,1.387a9.772,9.772,0,0,0,1.167.176v-10.5a2.6,2.6,0,1,1,1.732,0v10.5a9.771,9.771,0,0,0,1.167-.176C298.782,1778.236,298.967,1777.765,299.135,1777.31Z" transform="translate(-281.798 -1754.565)" fill="#333"/></g><g transform="translate(358.307 3.696)" opacity="0.12"><path d="M344.177,1633.969v-3.025a5.933,5.933,0,0,0-1.409,2.891C343.221,1633.9,343.69,1633.945,344.177,1633.969Z" transform="translate(-330.268 -1621.813)" fill="#333"/><path d="M344.177,1638.443v-3.025c-.488.024-.957.072-1.409.135A5.933,5.933,0,0,0,344.177,1638.443Z" transform="translate(-330.268 -1618.023)" fill="#333"/><path d="M344.469,1638.443a5.933,5.933,0,0,0,1.409-2.891c-.452-.063-.922-.111-1.409-.135Z" transform="translate(-328.827 -1618.023)" fill="#333"/><path d="M342.45,1634.874c0-.478.031-.934.074-1.385a9.255,9.255,0,0,1-1.468-.521,5.572,5.572,0,0,0,0,3.812,9.255,9.255,0,0,1,1.468-.521C342.481,1635.808,342.45,1635.352,342.45,1634.874Z" transform="translate(-332.003 -1620.098)" fill="#333"/><path d="M344.469,1630.944v3.025c.488-.024.957-.072,1.409-.135A5.933,5.933,0,0,0,344.469,1630.944Z" transform="translate(-328.827 -1621.813)" fill="#333"/><path d="M344.469,1633.589v1.777c.582.026,1.143.08,1.681.153.028-.338.05-.682.05-1.042s-.022-.7-.05-1.042C345.612,1633.51,345.051,1633.563,344.469,1633.589Z" transform="translate(-328.827 -1619.702)" fill="#333"/><path d="M342.594,1634.478c0,.36.022.7.05,1.042.537-.074,1.1-.127,1.681-.153v-1.777c-.582-.026-1.143-.08-1.681-.153C342.616,1633.774,342.594,1634.118,342.594,1634.478Z" transform="translate(-330.415 -1619.702)" fill="#333"/><path d="M345.8,1637.637a6.11,6.11,0,0,0,1.646-1.6,6.946,6.946,0,0,0-.968-.356A9.679,9.679,0,0,1,345.8,1637.637Z" transform="translate(-327.703 -1617.8)" fill="#333"/><path d="M341.313,1636.037a6.11,6.11,0,0,0,1.646,1.6,9.682,9.682,0,0,1-.678-1.956A6.949,6.949,0,0,0,341.313,1636.037Z" transform="translate(-331.5 -1617.8)" fill="#333"/><path d="M364.961,1638.223l-3.563-1.169a10.592,10.592,0,0,0-.482-1.156l1.653-3.306a.863.863,0,0,0-.163-1l-2.447-2.447a.863.863,0,0,0-1-.162l-3.306,1.653a10.6,10.6,0,0,0-1.156-.482l-1.169-3.563a.867.867,0,0,0-.822-.591h-3.463a.866.866,0,0,0-.82.591l-1.169,3.563a10.608,10.608,0,0,0-1.156.482l-3.306-1.653a.86.86,0,0,0-1,.162l-2.447,2.447a.863.863,0,0,0-.163,1l1.653,3.306a10.581,10.581,0,0,0-.482,1.156l-3.563,1.169a.866.866,0,0,0-.591.822v3.463a.865.865,0,0,0,.591.82l3.563,1.169a10.565,10.565,0,0,0,.482,1.156l-1.653,3.306a.863.863,0,0,0,.163,1l2.447,2.447a.861.861,0,0,0,1,.162l3.306-1.653a10.608,10.608,0,0,0,1.156.482l1.169,3.563a.866.866,0,0,0,.82.591h3.463a.867.867,0,0,0,.822-.591l1.169-3.563a10.6,10.6,0,0,0,1.156-.482l3.306,1.653a.866.866,0,0,0,1-.162l2.447-2.447a.863.863,0,0,0,.163-1l-1.653-3.306a10.576,10.576,0,0,0,.482-1.156l3.563-1.169a.866.866,0,0,0,.591-.82v-3.463A.866.866,0,0,0,364.961,1638.223Zm-14.185,10.345a7.792,7.792,0,1,1,7.792-7.792A7.87,7.87,0,0,1,350.776,1648.568Z" transform="translate(-336 -1626)" fill="#333"/><path d="M341.313,1632.859a6.949,6.949,0,0,0,.968.356,9.682,9.682,0,0,1,.678-1.956A6.11,6.11,0,0,0,341.313,1632.859Z" transform="translate(-331.5 -1621.545)" fill="#333"/><path d="M346.378,1634.874c0,.479-.031.935-.074,1.385a9.256,9.256,0,0,1,1.468.521,5.572,5.572,0,0,0,0-3.812,9.256,9.256,0,0,1-1.468.521C346.346,1633.94,346.378,1634.4,346.378,1634.874Z" transform="translate(-327.273 -1620.098)" fill="#333"/><path d="M347.442,1632.859a6.11,6.11,0,0,0-1.646-1.6,9.679,9.679,0,0,1,.678,1.956A6.946,6.946,0,0,0,347.442,1632.859Z" transform="translate(-327.703 -1621.545)" fill="#333"/></g><g transform="translate(92.343 244.726)" opacity="0.12"><path d="M206.315,1766.057h-2.6a.865.865,0,0,1-.864-.866v-2.6h-5.2v12.12h8.659Zm-2.6,6.926h-3.463a.866.866,0,0,1,0-1.732h3.463a.866.866,0,1,1,0,1.732Zm0-3.463h-3.463a.866.866,0,0,1,0-1.732h3.463a.866.866,0,1,1,0,1.732Z" transform="translate(-187.209 -1751.339)" fill="#333"/><path d="M201.406,1763.257v.506h.508Z" transform="translate(-184.033 -1750.777)" fill="#333"/><path d="M203.52,1763.04l-2.436-5.384a2.592,2.592,0,0,0-2.161-1.156H194.6a2.6,2.6,0,0,0-2.6,2.6v22.511a2.6,2.6,0,0,0,2.6,2.6h24.358a2.6,2.6,0,0,0,2.6-2.6v-18.182H204.24A.863.863,0,0,1,203.52,1763.04Zm5.6,3.238,3.459,3.461a1.068,1.068,0,0,1,.255.613v10.389a.866.866,0,0,1-.866.866H201.58a.866.866,0,0,1-.864-.866v-13.852a.866.866,0,0,1,.864-.866h6.926A1.054,1.054,0,0,1,209.121,1766.278Z" transform="translate(-192 -1756.5)" fill="#333"/><path d="M213.8,1757.438h-15.71l1.566,3.463H216.4v-.866A2.6,2.6,0,0,0,213.8,1757.438Z" transform="translate(-186.844 -1755.705)" fill="#333"/></g><g transform="translate(229.019 1.849)" opacity="0.12"><path d="M274.87,1636.963h11.52l2.564-3.463H272.306Z" transform="translate(-260.659 -1617.801)" fill="#333"/><path d="M287.324,1638.173H275.088a.86.86,0,0,1-.611-.255l-2.852-3.8v11.847a.866.866,0,0,0,.866.866h17.43a.866.866,0,0,0,.866-.866v-11.847l-2.852,3.8A.86.86,0,0,1,287.324,1638.173Zm1.731,4.327a2.6,2.6,0,1,1-2.6-2.6A2.6,2.6,0,0,1,289.055,1642.5Z" transform="translate(-261.236 -1617.278)" fill="#333"/><path d="M279.187,1639.052a.866.866,0,1,0,.866-.865A.867.867,0,0,0,279.187,1639.052Z" transform="translate(-254.831 -1613.83)" fill="#333"/><path d="M269.678,1629.607a.866.866,0,1,0-.866-.866A.867.867,0,0,0,269.678,1629.607Z" transform="translate(-263.618 -1622.565)" fill="#333"/><path d="M270.961,1638.188h-4.686l4.686,4.686Z" transform="translate(-265.767 -1613.83)" fill="#333"/><path d="M272.926,1648.491v6.06h1.731v-12.986a2.6,2.6,0,0,1,2.6-2.6h9.523v-13.1a.866.866,0,0,0-.866-.866H266.866a.866.866,0,0,0-.866.866v21.759h6.06A.866.866,0,0,1,272.926,1648.491Zm4.329-19.912h5.194a.865.865,0,1,1,0,1.731h-5.194a.865.865,0,1,1,0-1.731Zm0,3.463h5.194a.865.865,0,1,1,0,1.73h-5.194a.865.865,0,1,1,0-1.73Zm-5.2-3.463a2.6,2.6,0,1,1-2.6,2.6A2.6,2.6,0,0,1,272.06,1628.579Zm-1.731,6.926h12.12a.865.865,0,1,1,0,1.731h-12.12a.865.865,0,1,1,0-1.731Zm0,3.463h1.731a.865.865,0,1,1,0,1.731h-1.731a.865.865,0,1,1,0-1.731Zm-.866,4.328a.865.865,0,0,1,.866-.865h1.731a.865.865,0,1,1,0,1.731h-1.731A.866.866,0,0,1,269.463,1643.3Z" transform="translate(-266 -1625)" fill="#333"/></g></g></svg>