<svg xmlns="http://www.w3.org/2000/svg" xmlns:xlink="http://www.w3.org/1999/xlink" width="460" height="320.93" viewBox="0 0 460 320.93"><defs><clipPath id="a"><rect width="460" height="320.93" fill="none"/></clipPath></defs><g clip-path="url(#a)"><rect width="106.977" height="149.767" rx="6" transform="translate(0 160.465)" fill="#333"/><circle cx="38.512" cy="38.512" r="38.512" transform="translate(14.977 179.186)" fill="#fff"/><g transform="translate(10.677 280.51)"><path d="M653.611,656.92a3.672,3.672,0,0,1-1.443-1.38,3.976,3.976,0,0,1,0-3.946,3.671,3.671,0,0,1,1.443-1.38,4.535,4.535,0,0,1,4.13,0,3.687,3.687,0,0,1,1.443,1.375,3.989,3.989,0,0,1,0,3.957,3.688,3.688,0,0,1-1.443,1.375,4.536,4.536,0,0,1-4.13,0Zm3.414-1.059a2.442,2.442,0,0,0,.941-.941,2.852,2.852,0,0,0,0-2.705,2.441,2.441,0,0,0-.941-.941,2.858,2.858,0,0,0-2.7,0,2.435,2.435,0,0,0-.941.941,2.844,2.844,0,0,0,0,2.705,2.435,2.435,0,0,0,.941.941,2.866,2.866,0,0,0,2.7,0Z" transform="translate(-651.644 -649.716)" fill="#fff"/><path d="M671.553,649.815l-2.481,7.488H667.6l-1.852-5.54-1.882,5.54h-1.488l-2.481-7.488h1.443l1.861,5.692,1.936-5.692h1.284l1.895,5.723,1.915-5.723Z" transform="translate(-651.068 -649.709)" fill="#fff"/><path d="M678.658,649.815V657.3h-1.146l-4.129-5.071V657.3H672v-7.488h1.145l4.13,5.072v-5.072Z" transform="translate(-650.224 -649.709)" fill="#fff"/><path d="M685.72,656.138V657.3H680.1v-7.488h5.465v1.166h-4.076v1.948h3.616v1.145h-3.616v2.065Z" transform="translate(-649.658 -649.709)" fill="#fff"/><path d="M686.8,649.815h3.272a4.7,4.7,0,0,1,2.13.465,3.436,3.436,0,0,1,1.443,1.316,4,4,0,0,1,0,3.926,3.431,3.431,0,0,1-1.443,1.317,4.7,4.7,0,0,1-2.13.464H686.8Zm3.209,6.313a3.184,3.184,0,0,0,1.448-.316,2.255,2.255,0,0,0,.964-.9,2.892,2.892,0,0,0,0-2.705,2.261,2.261,0,0,0-.964-.9,3.183,3.183,0,0,0-1.448-.316h-1.819v5.136Z" transform="translate(-649.191 -649.709)" fill="#fff"/><path d="M704.7,657.3l-.011-4.963-2.46,4.108h-.62l-2.46-4.045v4.9h-1.326v-7.488h1.145l2.974,4.964,2.92-4.964h1.145l.011,7.488Z" transform="translate(-648.422 -649.709)" fill="#fff"/><path d="M712.989,656.138V657.3h-5.616v-7.488h5.465v1.166h-4.075v1.948h3.616v1.145h-3.616v2.065Z" transform="translate(-647.756 -649.709)" fill="#fff"/><path d="M714.073,649.815h3.273a4.7,4.7,0,0,1,2.129.465,3.444,3.444,0,0,1,1.444,1.316,4.009,4.009,0,0,1,0,3.926,3.439,3.439,0,0,1-1.444,1.317,4.7,4.7,0,0,1-2.129.464h-3.273Zm3.209,6.313a3.189,3.189,0,0,0,1.45-.316,2.258,2.258,0,0,0,.963-.9,2.883,2.883,0,0,0,0-2.705,2.264,2.264,0,0,0-.963-.9,3.188,3.188,0,0,0-1.45-.316h-1.819v5.136Z" transform="translate(-647.289 -649.709)" fill="#fff"/><path d="M722.333,649.815h1.391V657.3h-1.391Z" transform="translate(-646.712 -649.709)" fill="#fff"/><path d="M730.448,655.57H726.7l-.737,1.733h-1.433l3.37-7.488h1.369l3.38,7.488H731.2Zm-.459-1.09-1.413-3.275-1.4,3.275Z" transform="translate(-646.559 -649.709)" fill="#fff"/></g><rect width="106.977" height="149.767" rx="6" fill="#333"/><circle cx="38.512" cy="38.512" r="38.512" transform="translate(14.977 18.721)" fill="#fff"/><g transform="translate(16.994 120.045)"><path d="M669.208,499.815l-2.481,7.488H665.25l-1.85-5.54-1.884,5.54H660.03l-2.481-7.488h1.443l1.862,5.692,1.935-5.692h1.284l1.894,5.723,1.916-5.723Z" transform="translate(-657.549 -499.709)" fill="#fff"/><path d="M675.274,506.138V507.3h-5.616v-7.488h5.466v1.166H671.05v1.948h3.615v1.145H671.05v2.065Z" transform="translate(-656.704 -499.709)" fill="#fff"/><path d="M682.648,504.09a1.885,1.885,0,0,1,.364,1.181,1.73,1.73,0,0,1-.748,1.5,3.766,3.766,0,0,1-2.183.53h-3.723v-7.488h3.51a3.45,3.45,0,0,1,2.043.52,1.668,1.668,0,0,1,.717,1.428,1.878,1.878,0,0,1-.257.984,1.768,1.768,0,0,1-.707.663A1.964,1.964,0,0,1,682.648,504.09Zm-4.9-3.184v2.066h1.968a2,2,0,0,0,1.118-.262.863.863,0,0,0,.39-.765.874.874,0,0,0-.39-.777,2,2,0,0,0-1.118-.262Zm3.863,4.226q0-1.08-1.616-1.08h-2.246v2.162H680Q681.613,506.213,681.612,505.132Z" transform="translate(-656.237 -499.709)" fill="#fff"/><path d="M686.729,499.815H690a4.7,4.7,0,0,1,2.129.465,3.444,3.444,0,0,1,1.444,1.316,4.016,4.016,0,0,1,0,3.926,3.44,3.44,0,0,1-1.444,1.317A4.7,4.7,0,0,1,690,507.3h-3.272Zm3.209,6.313a3.186,3.186,0,0,0,1.448-.316,2.249,2.249,0,0,0,.962-.9,2.876,2.876,0,0,0,0-2.705,2.256,2.256,0,0,0-.962-.9,3.187,3.187,0,0,0-1.448-.316h-1.82v5.136Z" transform="translate(-655.513 -499.709)" fill="#fff"/><path d="M700.6,506.138V507.3h-5.616v-7.488h5.467v1.166h-4.076v1.948h3.616v1.145h-3.616v2.065Z" transform="translate(-654.937 -499.709)" fill="#fff"/><path d="M702.376,507.172a3.485,3.485,0,0,1-1.278-.654l.481-1.08a3.746,3.746,0,0,0,1.13.594,4.069,4.069,0,0,0,1.34.23,2.319,2.319,0,0,0,1.247-.267.81.81,0,0,0,.412-.705.685.685,0,0,0-.23-.529,1.623,1.623,0,0,0-.583-.327q-.353-.117-.963-.267a11.064,11.064,0,0,1-1.385-.407,2.254,2.254,0,0,1-.908-.636,1.7,1.7,0,0,1-.381-1.17,2.017,2.017,0,0,1,.336-1.13,2.3,2.3,0,0,1,1.018-.808,4.125,4.125,0,0,1,1.662-.3,5.416,5.416,0,0,1,1.348.17,3.765,3.765,0,0,1,1.145.492l-.439,1.082a4.248,4.248,0,0,0-1.028-.439,3.8,3.8,0,0,0-1.035-.15,2.164,2.164,0,0,0-1.226.278.857.857,0,0,0-.4.737.666.666,0,0,0,.23.524,1.648,1.648,0,0,0,.583.321c.235.078.556.168.963.267a10.131,10.131,0,0,1,1.37.4,2.345,2.345,0,0,1,.914.638,1.672,1.672,0,0,1,.379,1.154,1.976,1.976,0,0,1-.336,1.124,2.3,2.3,0,0,1-1.022.8,4.174,4.174,0,0,1-1.67.3A5.725,5.725,0,0,1,702.376,507.172Z" transform="translate(-654.511 -499.716)" fill="#fff"/><path d="M707.979,499.815h1.39V507.3h-1.39Z" transform="translate(-654.031 -499.709)" fill="#fff"/><path d="M716.316,503.481h1.316v2.985a4.173,4.173,0,0,1-1.348.707,5.187,5.187,0,0,1-1.584.245,4.26,4.26,0,0,1-2.064-.5,3.683,3.683,0,0,1-1.444-1.375,4,4,0,0,1,0-3.957,3.671,3.671,0,0,1,1.451-1.375,4.305,4.305,0,0,1,2.08-.5,4.557,4.557,0,0,1,1.713.31,3.363,3.363,0,0,1,1.293.908l-.877.856a2.817,2.817,0,0,0-2.065-.856,2.923,2.923,0,0,0-1.407.332,2.428,2.428,0,0,0-.963.931,2.675,2.675,0,0,0-.347,1.369,2.63,2.63,0,0,0,.347,1.348,2.49,2.49,0,0,0,.963.941,2.812,2.812,0,0,0,1.4.342,3.01,3.01,0,0,0,1.54-.385Z" transform="translate(-653.843 -499.716)" fill="#fff"/><path d="M725.541,499.815V507.3H724.4l-4.128-5.071V507.3h-1.38v-7.488h1.143l4.13,5.072v-5.072Z" transform="translate(-653.27 -499.709)" fill="#fff"/></g><g transform="translate(34.232 37.977)"><path d="M681.377,425.571h1.376v1.376h-1.376Z" transform="translate(-673.125 -422.821)" fill="#333"/><path d="M676.235,425.571h1.375v1.376h-1.375Z" transform="translate(-673.484 -422.821)" fill="#333"/><path d="M686.52,425.571H687.9v1.376H686.52Z" transform="translate(-672.766 -422.821)" fill="#333"/><path d="M710.456,423H675.382a1.721,1.721,0,0,0-1.719,1.719v5.158h38.512v-5.158A1.721,1.721,0,0,0,710.456,423Zm-31.291,4.814a.688.688,0,0,1-.688.688h-2.75a.688.688,0,0,1-.688-.688v-2.75a.688.688,0,0,1,.688-.688h2.75a.688.688,0,0,1,.688.688Zm5.5,0a.688.688,0,0,1-.688.688h-2.75a.688.688,0,0,1-.688-.688v-2.75a.688.688,0,0,1,.688-.688h2.75a.688.688,0,0,1,.688.688Zm5.5,0a.688.688,0,0,1-.688.688h-2.751a.688.688,0,0,1-.687-.688v-2.75a.688.688,0,0,1,.687-.688h2.751a.688.688,0,0,1,.688.688Z" transform="translate(-673.663 -423)" fill="#333"/><path d="M694.235,453.857h5.5v1.376h-5.5Z" transform="translate(-672.228 -420.847)" fill="#333"/><path d="M676.877,442.824h13.755v-8.253H676.877Zm1.577-2.549,2.751-2.751a.688.688,0,0,1,.972,0l.889.889,2.265-2.265a.688.688,0,0,1,.972,0l2.75,2.751a.688.688,0,0,1-.972.972l-2.264-2.265-1.779,1.778.889.89a.688.688,0,0,1-.972.972l-2.265-2.265-2.265,2.265a.688.688,0,0,1-.972-.972Z" transform="translate(-673.439 -422.193)" fill="#333"/><path d="M673.663,430.714v28.54a1.721,1.721,0,0,0,1.719,1.719h35.073a1.721,1.721,0,0,0,1.719-1.719v-28.54Zm20.631,10.316a.688.688,0,0,1,.688-.688h6.877a.688.688,0,0,1,.688.688v2.751a.687.687,0,0,1-.688.687h-6.877a.687.687,0,0,1-.688-.687Zm0-3.438a.687.687,0,0,1,.688-.688h11a.688.688,0,0,1,0,1.376h-11a.688.688,0,0,1-.688-.688Zm-2.064,19.944a.688.688,0,0,1-.688.688H676.414a.688.688,0,0,1-.688-.688v-9.628a.687.687,0,0,1,.688-.688h15.129a.687.687,0,0,1,.688.688Zm0-13.754a.687.687,0,0,1-.688.687H676.414a.687.687,0,0,1-.688-.687v-9.628a.687.687,0,0,1,.688-.688h15.129a.687.687,0,0,1,.688.688Zm10.316,13.754a.688.688,0,0,1-.688.688h-6.877a.688.688,0,0,1-.688-.688v-2.751a.688.688,0,0,1,.688-.688h6.877a.688.688,0,0,1,.688.688Zm3.438-5.5h-11a.688.688,0,0,1,0-1.376h11a.688.688,0,0,1,0,1.376Zm3.439-2.751H694.982a.687.687,0,1,1,0-1.375h14.442a.687.687,0,1,1,0,1.375Zm0-13.754H694.982a.687.687,0,1,1,0-1.375h14.442a.687.687,0,1,1,0,1.375Z" transform="translate(-673.663 -422.462)" fill="#333"/><path d="M676.877,455.681h13.755v-8.252H676.877Zm1.577-2.549,2.751-2.751a.688.688,0,0,1,.972,0l.889.89,2.265-2.265a.686.686,0,0,1,.972,0l2.75,2.75a.688.688,0,0,1-.972.972l-2.264-2.265-1.779,1.779.889.889a.688.688,0,0,1-.972.972l-2.265-2.265-2.265,2.265a.688.688,0,0,1-.972-.972Z" transform="translate(-673.439 -421.296)" fill="#333"/><path d="M694.235,441h5.5v1.376h-5.5Z" transform="translate(-672.228 -421.744)" fill="#333"/></g><rect width="106.977" height="149.767" rx="6" transform="translate(117.674 171.163)" fill="#333"/><circle cx="38.512" cy="38.512" r="38.512" transform="translate(132.651 189.884)" fill="#fff"/><g transform="translate(126.25 291.208)"><path d="M766.558,667.3l-.011-4.963-2.46,4.108h-.62l-2.46-4.045v4.9h-1.326v-7.488h1.143l2.975,4.964,2.92-4.964h1.144l.012,7.488Z" transform="translate(-759.679 -659.709)" fill="#fff"/><path d="M774.155,665.57h-3.744l-.739,1.733h-1.434l3.371-7.488h1.368l3.38,7.488H774.9Zm-.461-1.09-1.411-3.275-1.4,3.275Z" transform="translate(-759.082 -659.709)" fill="#fff"/><path d="M776.719,659.815h1.391V667.3h-1.391Z" transform="translate(-758.49 -659.709)" fill="#fff"/><path d="M779.908,659.815H781.3v6.313h3.914V667.3h-5.306Z" transform="translate(-758.268 -659.709)" fill="#fff"/><path d="M795.537,667.3l-.011-4.963-2.46,4.108h-.62l-2.46-4.045v4.9h-1.326v-7.488H789.8l2.973,4.964,2.92-4.964h1.146l.01,7.488Z" transform="translate(-757.657 -659.709)" fill="#fff"/><path d="M803.134,665.57H799.39l-.737,1.733h-1.434l3.369-7.488h1.369l3.382,7.488h-1.456Zm-.46-1.09-1.412-3.275-1.4,3.275Z" transform="translate(-757.06 -659.709)" fill="#fff"/><path d="M810.848,663.481h1.315v2.985a4.166,4.166,0,0,1-1.349.707,5.168,5.168,0,0,1-1.582.245,4.263,4.263,0,0,1-2.066-.5,3.7,3.7,0,0,1-1.444-1.375,4,4,0,0,1,0-3.957,3.685,3.685,0,0,1,1.451-1.375,4.309,4.309,0,0,1,2.081-.5,4.558,4.558,0,0,1,1.712.31,3.359,3.359,0,0,1,1.294.908l-.876.856a2.821,2.821,0,0,0-2.066-.856,2.933,2.933,0,0,0-1.408.332,2.425,2.425,0,0,0-.962.931,2.676,2.676,0,0,0-.348,1.369,2.631,2.631,0,0,0,.348,1.348,2.488,2.488,0,0,0,.962.941,2.819,2.819,0,0,0,1.4.342,3.023,3.023,0,0,0,1.543-.385Z" transform="translate(-756.503 -659.716)" fill="#fff"/><path d="M818.343,665.57H814.6l-.737,1.733h-1.434l3.37-7.488h1.368l3.382,7.488h-1.455Zm-.46-1.09-1.412-3.275-1.4,3.275Z" transform="translate(-755.999 -659.709)" fill="#fff"/><path d="M826.765,666.128V667.3h-6.388v-.931l4.407-5.381h-4.333v-1.177h6.172v.932l-4.406,5.381Z" transform="translate(-755.444 -659.709)" fill="#fff"/><path d="M827.537,659.815h1.392V667.3h-1.392Z" transform="translate(-754.945 -659.709)" fill="#fff"/><path d="M837.381,659.815V667.3h-1.145l-4.128-5.071V667.3h-1.381v-7.488h1.145L836,664.887v-5.072Z" transform="translate(-754.722 -659.709)" fill="#fff"/><path d="M844.443,666.138V667.3h-5.616v-7.488h5.466v1.166h-4.076v1.948h3.617v1.145h-3.617v2.065Z" transform="translate(-754.157 -659.709)" fill="#fff"/></g><rect width="106.977" height="149.767" rx="6" transform="translate(117.674 10.698)" fill="#333"/><circle cx="38.512" cy="38.512" r="38.512" transform="translate(132.651 29.418)" fill="#fff"/><g transform="translate(160.086 130.743)"><path d="M792.586,517.172a3.49,3.49,0,0,1-1.277-.654l.48-1.08a3.757,3.757,0,0,0,1.128.594,4.094,4.094,0,0,0,1.344.23,2.308,2.308,0,0,0,1.245-.267.806.806,0,0,0,.413-.7.678.678,0,0,0-.231-.53,1.6,1.6,0,0,0-.583-.327c-.233-.078-.555-.167-.962-.267a11.049,11.049,0,0,1-1.385-.406,2.275,2.275,0,0,1-.91-.636,1.713,1.713,0,0,1-.379-1.17,1.993,1.993,0,0,1,.337-1.13,2.291,2.291,0,0,1,1.016-.808,4.125,4.125,0,0,1,1.662-.3,5.4,5.4,0,0,1,1.349.17,3.734,3.734,0,0,1,1.144.492l-.438,1.082a4.282,4.282,0,0,0-1.027-.439,3.821,3.821,0,0,0-1.038-.15,2.161,2.161,0,0,0-1.225.278.857.857,0,0,0-.4.737.666.666,0,0,0,.23.524,1.649,1.649,0,0,0,.583.321c.236.078.555.168.963.267a10.113,10.113,0,0,1,1.368.4,2.338,2.338,0,0,1,.916.638,1.678,1.678,0,0,1,.38,1.154,1.977,1.977,0,0,1-.337,1.124,2.3,2.3,0,0,1-1.022.8,4.167,4.167,0,0,1-1.669.3A5.716,5.716,0,0,1,792.586,517.172Z" transform="translate(-791.309 -509.716)" fill="#fff"/><path d="M803.8,516.138V517.3h-5.616v-7.488h5.468v1.166h-4.076v1.948h3.616v1.145h-3.616v2.065Z" transform="translate(-790.829 -509.709)" fill="#fff"/><path d="M806.357,516.92a3.66,3.66,0,0,1-1.444-1.38,3.976,3.976,0,0,1,0-3.946,3.66,3.66,0,0,1,1.444-1.38,4.531,4.531,0,0,1,4.128,0,3.683,3.683,0,0,1,1.444,1.375,4,4,0,0,1,0,3.957,3.684,3.684,0,0,1-1.444,1.375,4.532,4.532,0,0,1-4.128,0Zm3.412-1.059a2.445,2.445,0,0,0,.942-.941,2.852,2.852,0,0,0,0-2.705,2.445,2.445,0,0,0-.942-.941,2.857,2.857,0,0,0-2.7,0,2.435,2.435,0,0,0-.941.941,2.844,2.844,0,0,0,0,2.705,2.436,2.436,0,0,0,.941.941,2.864,2.864,0,0,0,2.7,0Z" transform="translate(-790.396 -509.716)" fill="#fff"/></g><rect width="106.977" height="149.767" rx="6" transform="translate(235.349 160.465)" fill="#333"/><circle cx="38.512" cy="38.512" r="38.512" transform="translate(250.326 179.186)" fill="#fff"/><g transform="translate(278.347 280.51)"><path d="M907.473,656.138V657.3h-5.616v-7.488h5.468v1.166h-4.076v1.948h3.616v1.145h-3.616v2.065Z" transform="translate(-901.857 -649.709)" fill="#fff"/><path d="M909.949,650.981v2.279h3.616v1.178h-3.616V657.3h-1.39v-7.488h5.465v1.166Z" transform="translate(-901.389 -649.709)" fill="#fff"/><path d="M916.4,656.92a3.674,3.674,0,0,1-1.444-1.38,3.975,3.975,0,0,1,0-3.946,3.673,3.673,0,0,1,1.444-1.38,4.535,4.535,0,0,1,4.13,0,3.7,3.7,0,0,1,1.444,1.375,4,4,0,0,1,0,3.957,3.706,3.706,0,0,1-1.444,1.375,4.536,4.536,0,0,1-4.13,0Zm3.414-1.059a2.432,2.432,0,0,0,.94-.941,2.844,2.844,0,0,0,0-2.705,2.432,2.432,0,0,0-.94-.941,2.858,2.858,0,0,0-2.7,0,2.417,2.417,0,0,0-.94.941,2.836,2.836,0,0,0,0,2.705,2.418,2.418,0,0,0,.94.941,2.866,2.866,0,0,0,2.7,0Z" transform="translate(-900.98 -649.716)" fill="#fff"/></g><rect width="106.977" height="149.767" rx="6" transform="translate(235.349)" fill="#333"/><circle cx="38.512" cy="38.512" r="38.512" transform="translate(250.326 18.721)" fill="#fff"/><g transform="translate(240.874 120.045)"><path d="M872.743,505.57H869l-.737,1.733h-1.434l3.371-7.488h1.368l3.38,7.488h-1.454Zm-.459-1.09-1.413-3.275-1.4,3.275Z" transform="translate(-866.828 -499.709)" fill="#fff"/><path d="M875.308,499.815h3.272a4.7,4.7,0,0,1,2.129.465,3.438,3.438,0,0,1,1.444,1.316,4.009,4.009,0,0,1,0,3.926,3.433,3.433,0,0,1-1.444,1.317,4.7,4.7,0,0,1-2.129.464h-3.272Zm3.209,6.313a3.187,3.187,0,0,0,1.448-.316,2.246,2.246,0,0,0,.963-.9,2.884,2.884,0,0,0,0-2.705,2.253,2.253,0,0,0-.963-.9,3.187,3.187,0,0,0-1.448-.316H876.7v5.136Z" transform="translate(-866.236 -499.709)" fill="#fff"/><path d="M890.483,499.815l-3.262,7.488h-1.37l-3.272-7.488h1.507l2.493,5.778,2.515-5.778Z" transform="translate(-865.729 -499.709)" fill="#fff"/><path d="M896.473,506.138V507.3h-5.616v-7.488h5.466v1.166h-4.075v1.948h3.615v1.145h-3.615v2.065Z" transform="translate(-865.152 -499.709)" fill="#fff"/><path d="M902.458,507.3l-1.531-2.192c-.064.006-.159.01-.289.01h-1.69V507.3h-1.39v-7.488h3.08a4.141,4.141,0,0,1,1.7.321,2.467,2.467,0,0,1,1.108.921,2.571,2.571,0,0,1,.385,1.423,2.541,2.541,0,0,1-.412,1.454,2.454,2.454,0,0,1-1.182.91l1.721,2.459Zm-.5-5.927a2.14,2.14,0,0,0-1.381-.385h-1.626v2.985h1.626a2.121,2.121,0,0,0,1.381-.389,1.36,1.36,0,0,0,.47-1.107A1.344,1.344,0,0,0,901.955,501.377Z" transform="translate(-864.684 -499.709)" fill="#fff"/><path d="M906.449,500.992h-2.481v-1.177h6.354v1.177h-2.482V507.3h-1.392Z" transform="translate(-864.237 -499.709)" fill="#fff"/><path d="M910.888,499.815h1.39V507.3h-1.39Z" transform="translate(-863.754 -499.709)" fill="#fff"/><path d="M914.766,507.172a3.494,3.494,0,0,1-1.278-.654l.48-1.08a3.778,3.778,0,0,0,1.129.594,4.093,4.093,0,0,0,1.344.23,2.311,2.311,0,0,0,1.245-.267.806.806,0,0,0,.413-.705.679.679,0,0,0-.231-.529,1.615,1.615,0,0,0-.583-.327q-.352-.117-.962-.267a11,11,0,0,1-1.385-.407,2.268,2.268,0,0,1-.91-.636,1.713,1.713,0,0,1-.379-1.17,1.994,1.994,0,0,1,.337-1.13,2.288,2.288,0,0,1,1.015-.808,4.134,4.134,0,0,1,1.664-.3,5.406,5.406,0,0,1,1.349.17,3.748,3.748,0,0,1,1.144.492l-.437,1.082a4.3,4.3,0,0,0-1.027-.439,3.821,3.821,0,0,0-1.039-.15,2.158,2.158,0,0,0-1.224.278.857.857,0,0,0-.4.737.666.666,0,0,0,.23.524,1.651,1.651,0,0,0,.582.321c.236.078.556.168.964.267a10.142,10.142,0,0,1,1.368.4,2.345,2.345,0,0,1,.916.638,1.678,1.678,0,0,1,.38,1.154,1.977,1.977,0,0,1-.337,1.124,2.3,2.3,0,0,1-1.022.8,4.171,4.171,0,0,1-1.669.3A5.716,5.716,0,0,1,914.766,507.172Z" transform="translate(-863.573 -499.716)" fill="#fff"/><path d="M925.983,506.138V507.3h-5.616v-7.488h5.468v1.166h-4.076v1.948h3.616v1.145h-3.616v2.065Z" transform="translate(-863.093 -499.709)" fill="#fff"/><path d="M933.947,507.3l-.011-4.963-2.461,4.108h-.62L928.4,502.4v4.9h-1.328v-7.488h1.145l2.974,4.964,2.92-4.964h1.145l.012,7.488Z" transform="translate(-862.625 -499.709)" fill="#fff"/><path d="M942.233,506.138V507.3h-5.616v-7.488h5.468v1.166h-4.076v1.948h3.616v1.145h-3.616v2.065Z" transform="translate(-861.959 -499.709)" fill="#fff"/><path d="M949.972,499.815V507.3h-1.145l-4.13-5.071V507.3h-1.379v-7.488h1.145l4.129,5.072v-5.072Z" transform="translate(-861.492 -499.709)" fill="#fff"/><path d="M953,500.992h-2.482v-1.177h6.354v1.177h-2.481V507.3H953Z" transform="translate(-860.989 -499.709)" fill="#fff"/></g><rect width="106.977" height="149.767" rx="6" transform="translate(353.023 171.163)" fill="#333"/><circle cx="38.512" cy="38.512" r="38.512" transform="translate(368 189.884)" fill="#fff"/><g transform="translate(380.875 291.208)"><path d="M998.976,667.172a3.5,3.5,0,0,1-1.278-.654l.481-1.081a3.763,3.763,0,0,0,1.129.594,4.081,4.081,0,0,0,1.343.23,2.315,2.315,0,0,0,1.246-.267.807.807,0,0,0,.412-.7.681.681,0,0,0-.23-.53,1.614,1.614,0,0,0-.583-.327c-.235-.078-.555-.167-.963-.267a10.986,10.986,0,0,1-1.385-.407,2.258,2.258,0,0,1-.909-.636,1.713,1.713,0,0,1-.38-1.17,2,2,0,0,1,.337-1.13,2.29,2.29,0,0,1,1.016-.808,4.134,4.134,0,0,1,1.663-.3,5.4,5.4,0,0,1,1.348.17,3.752,3.752,0,0,1,1.145.492l-.439,1.082a4.282,4.282,0,0,0-1.027-.439,3.814,3.814,0,0,0-1.038-.15,2.159,2.159,0,0,0-1.224.278.856.856,0,0,0-.4.737.662.662,0,0,0,.23.524,1.632,1.632,0,0,0,.582.321c.235.078.556.168.964.267a10.213,10.213,0,0,1,1.368.4,2.354,2.354,0,0,1,.916.638,1.678,1.678,0,0,1,.379,1.154,1.969,1.969,0,0,1-.337,1.124,2.29,2.29,0,0,1-1.022.8,4.168,4.168,0,0,1-1.669.3A5.722,5.722,0,0,1,998.976,667.172Z" transform="translate(-997.698 -659.716)" fill="#fff"/><path d="M1010.194,666.138V667.3h-5.616v-7.488h5.466v1.166h-4.075v1.948h3.615v1.145h-3.615v2.065Z" transform="translate(-997.218 -659.709)" fill="#fff"/><path d="M1018.158,667.3l-.012-4.963-2.46,4.108h-.62l-2.459-4.045v4.9h-1.328v-7.488h1.145l2.975,4.964,2.919-4.964h1.145l.011,7.488Z" transform="translate(-996.751 -659.709)" fill="#fff"/><path d="M1020.828,659.815h1.392V667.3h-1.392Z" transform="translate(-996.084 -659.709)" fill="#fff"/><path d="M1030.672,659.815V667.3h-1.145l-4.128-5.071V667.3h-1.381v-7.488h1.145l4.129,5.072v-5.072Z" transform="translate(-995.862 -659.709)" fill="#fff"/><path d="M1037.044,665.57H1033.3l-.737,1.733h-1.433l3.369-7.488h1.37l3.38,7.488h-1.456Zm-.459-1.09-1.413-3.275-1.4,3.275Z" transform="translate(-995.366 -659.709)" fill="#fff"/><path d="M1044.508,667.3l-1.53-2.192q-.1.01-.289.01H1041V667.3h-1.392v-7.488h3.082a4.136,4.136,0,0,1,1.694.321,2.458,2.458,0,0,1,1.107.921,2.563,2.563,0,0,1,.386,1.423,2.533,2.533,0,0,1-.412,1.454,2.452,2.452,0,0,1-1.181.91l1.721,2.459Zm-.5-5.926a2.139,2.139,0,0,0-1.38-.385H1041v2.985h1.626a2.121,2.121,0,0,0,1.38-.389,1.358,1.358,0,0,0,.471-1.107A1.342,1.342,0,0,0,1044,661.377Z" transform="translate(-994.774 -659.709)" fill="#fff"/></g><rect width="106.977" height="149.767" rx="6" transform="translate(353.023 10.698)" fill="#333"/><circle cx="38.512" cy="38.512" r="38.512" transform="translate(368 29.418)" fill="#fff"/><g transform="translate(398.377 130.849)"><path d="M1020.937,517.3l-.01-4.963-2.462,4.108h-.62l-2.459-4.045v4.9h-1.327v-7.488h1.144l2.974,4.964,2.922-4.964h1.144l.012,7.488Z" transform="translate(-1014.059 -509.815)" fill="#fff"/><path d="M1028.534,515.57h-3.744l-.738,1.733h-1.433l3.37-7.488h1.369l3.38,7.488h-1.455Zm-.46-1.09-1.412-3.275-1.4,3.275Z" transform="translate(-1013.462 -509.815)" fill="#fff"/></g><g transform="translate(150.837 47.603)"><path d="M809.811,436.65a15.908,15.908,0,1,0-2.175,24.3,3.355,3.355,0,0,0,.908,1.686l9.032,9.031a3.36,3.36,0,1,0,4.752-4.752l-9.031-9.034a3.359,3.359,0,0,0-1.685-.906A15.923,15.923,0,0,0,809.811,436.65ZM806.959,456.3a11.875,11.875,0,1,1,0-16.794A11.888,11.888,0,0,1,806.959,456.3Z" transform="translate(-782.663 -431.999)" fill="#333"/></g><g transform="translate(267.442 35.837)"><path d="M897.846,441.058a3.741,3.741,0,0,0,2.6-1.057l3.711,1.855a3.752,3.752,0,1,0,7.476.456,3.72,3.72,0,0,0-.377-1.611l5.034-5.034a3.721,3.721,0,0,0,1.611.378,3.766,3.766,0,0,0,3.76-3.761,3.726,3.726,0,0,0-.187-1.114l4.373-3.28a3.914,3.914,0,1,0-1.491-2.014l-4.373,3.28a3.745,3.745,0,0,0-5.466,4.739l-5.033,5.034a3.694,3.694,0,0,0-4.215.68l-3.711-1.856a3.559,3.559,0,0,0,.046-.456,3.761,3.761,0,1,0-3.76,3.761Z" transform="translate(-891.494 -421)" fill="#333"/><path d="M933.2,460.466h-1.337V433.973a1.253,1.253,0,0,0-1.254-1.254H925.6a1.253,1.253,0,0,0-1.254,1.254v26.493h-2.508V441.494a1.253,1.253,0,0,0-1.254-1.254h-5.014a1.253,1.253,0,0,0-1.254,1.254v18.971H911.8v-8.942a1.253,1.253,0,0,0-1.254-1.254h-5.014a1.253,1.253,0,0,0-1.254,1.254v8.942h-2.508V446.508a1.253,1.253,0,0,0-1.254-1.253h-5.014a1.253,1.253,0,0,0-1.254,1.253v13.957h-1.337a1.254,1.254,0,0,0,0,2.508H933.2a1.254,1.254,0,0,0,0-2.508Z" transform="translate(-891.663 -420.182)" fill="#333"/></g><g transform="translate(33.163 202.169)"><path d="M678.571,576.484h0a1.432,1.432,0,0,0-1.019.423,1.447,1.447,0,0,0-.428,1.032v21.813a1.46,1.46,0,0,0,1.456,1.455c3.386.008,9.059.714,12.973,4.809V583.187a1.4,1.4,0,0,0-.2-.736C688.137,577.278,681.964,576.493,678.571,576.484Z" transform="translate(-672.352 -576.484)" fill="#333"/><path d="M707.147,599.752V577.939a1.447,1.447,0,0,0-.428-1.032,1.431,1.431,0,0,0-1.018-.423h0c-3.393.009-9.566.794-12.777,5.967a1.385,1.385,0,0,0-.2.736v22.828c3.913-4.1,9.586-4.8,12.972-4.809A1.459,1.459,0,0,0,707.147,599.752Z" transform="translate(-671.264 -576.484)" fill="#333"/><path d="M710.33,581.187h-1.055v18.236a3.723,3.723,0,0,1-3.71,3.713c-2.872.006-7.607.568-10.961,3.742,5.8-1.42,11.915-.5,15.4.3a1.455,1.455,0,0,0,1.78-1.417V582.641A1.456,1.456,0,0,0,710.33,581.187Z" transform="translate(-671.132 -576.156)" fill="#333"/><path d="M675.173,599.423V581.187h-1.055a1.456,1.456,0,0,0-1.455,1.454v23.118a1.455,1.455,0,0,0,1.78,1.417c3.485-.795,9.6-1.717,15.4-.3-3.354-3.174-8.089-3.736-10.961-3.742A3.722,3.722,0,0,1,675.173,599.423Z" transform="translate(-672.663 -576.156)" fill="#333"/></g><g transform="translate(152.977 215.405)"><path d="M802.8,606.114l-4.5-3.939L785.431,613.2a2.635,2.635,0,0,0,1.8.7h31.14a2.614,2.614,0,0,0,1.786-.7l-12.857-11.029Z" transform="translate(-784.61 -587.928)" fill="#333"/><path d="M820.161,589.561a2.617,2.617,0,0,0-1.8-.7h-31.14a2.61,2.61,0,0,0-1.791.709l17.36,14.879Z" transform="translate(-784.609 -588.857)" fill="#333"/><path d="M784.663,590.989v21.584l12.556-10.67Z" transform="translate(-784.663 -588.708)" fill="#333"/><path d="M806.926,601.9l12.556,10.67V590.982Z" transform="translate(-783.11 -588.709)" fill="#333"/></g><path d="M1048.981,449.819a1.68,1.68,0,0,0-1.658-1.271,5.7,5.7,0,0,1-3.9-9.914,1.435,1.435,0,0,0,.157-1.947,25.548,25.548,0,0,0-4.087-4.127,1.436,1.436,0,0,0-1.96.158,5.946,5.946,0,0,1-6.435,1.445,5.728,5.728,0,0,1-3.484-5.6,1.432,1.432,0,0,0-1.267-1.507,25.747,25.747,0,0,0-5.8-.016,1.438,1.438,0,0,0-1.277,1.477,5.74,5.74,0,0,1-3.532,5.5,5.963,5.963,0,0,1-6.386-1.455,1.437,1.437,0,0,0-1.947-.163,25.639,25.639,0,0,0-4.173,4.126,1.435,1.435,0,0,0,.154,1.96,5.717,5.717,0,0,1,1.442,6.437,5.963,5.963,0,0,1-5.613,3.487,1.4,1.4,0,0,0-1.49,1.268,25.856,25.856,0,0,0-.012,5.866,1.709,1.709,0,0,0,1.693,1.27,5.657,5.657,0,0,1,5.308,3.535,5.739,5.739,0,0,1-1.443,6.38,1.433,1.433,0,0,0-.156,1.943,25.6,25.6,0,0,0,4.081,4.129,1.434,1.434,0,0,0,1.963-.155,5.937,5.937,0,0,1,6.432-1.446,5.724,5.724,0,0,1,3.492,5.6,1.432,1.432,0,0,0,1.266,1.507,25.735,25.735,0,0,0,5.8.016,1.437,1.437,0,0,0,1.277-1.478,5.733,5.733,0,0,1,3.53-5.5,5.952,5.952,0,0,1,6.389,1.453,1.44,1.44,0,0,0,1.947.163,25.632,25.632,0,0,0,4.173-4.126,1.432,1.432,0,0,0-.153-1.961,5.714,5.714,0,0,1-1.445-6.435,5.775,5.775,0,0,1,5.277-3.5l.319.009a1.437,1.437,0,0,0,1.51-1.266A25.723,25.723,0,0,0,1048.981,449.819Zm-25.636,17.737a14.871,14.871,0,1,1,12.77-7.247L1029.6,453.8a9.124,9.124,0,0,0-10.8-12.357,1.03,1.03,0,0,0-.715.719,1.008,1.008,0,0,0,.287.986s3.215,3.24,4.291,4.315a.667.667,0,0,1,.1.478l-.01.071a20.678,20.678,0,0,1-.49,3.148c-.023.022-.045.042-.069.066l-.071.073a20.314,20.314,0,0,1-3.2.5v-.006l-.055.014a.486.486,0,0,1-.051,0,.689.689,0,0,1-.494-.21c-1.119-1.12-4.208-4.187-4.208-4.187a1.051,1.051,0,0,0-.751-.334,1.021,1.021,0,0,0-.962.777,9.125,9.125,0,0,0,12.361,10.784l6.583,6.583A14.8,14.8,0,0,1,1023.346,467.556Z" transform="translate(-616.834 -384.752)" fill="#333"/><path d="M906.084,578.862v-1.936a.636.636,0,0,1,.634-.635h11.934a.636.636,0,0,1,.634.635v1.936a.636.636,0,0,1-.634.634H906.719A.636.636,0,0,1,906.084,578.862Zm10.262-5.552a3.673,3.673,0,0,0-7.322,0Zm12.017,7.618V611a4.013,4.013,0,0,1-4.008,4.007H901.016A4.012,4.012,0,0,1,897.009,611V580.928a4.011,4.011,0,0,1,4.007-4.007H903.1v1.942a3.619,3.619,0,0,0,3.615,3.615h11.934a3.619,3.619,0,0,0,3.615-3.615v-1.942h2.087A4.012,4.012,0,0,1,928.363,580.928Zm-20.691,17.51a1.491,1.491,0,0,0-2.051.486l-1.41,2.286-.728-.572a1.49,1.49,0,1,0-1.843,2.342l2.04,1.607a1.492,1.492,0,0,0,.922.32,1.441,1.441,0,0,0,.261-.023,1.487,1.487,0,0,0,1.008-.685l2.287-3.709A1.49,1.49,0,0,0,907.671,598.438Zm0-10.731a1.49,1.49,0,0,0-2.051.487l-1.41,2.286-.728-.573a1.49,1.49,0,1,0-1.843,2.342l2.04,1.608a1.5,1.5,0,0,0,.922.319,1.539,1.539,0,0,0,.261-.022,1.492,1.492,0,0,0,1.008-.686l2.287-3.709A1.49,1.49,0,0,0,907.671,587.707Zm15.435,15.708a1.489,1.489,0,0,0-1.49-1.49h-9.737a1.49,1.49,0,0,0,0,2.98h9.737A1.49,1.49,0,0,0,923.106,603.416Zm0-10.731a1.49,1.49,0,0,0-1.49-1.49h-9.737a1.49,1.49,0,0,0,0,2.98h9.737A1.489,1.489,0,0,0,923.106,592.685Z" transform="translate(-623.848 -374.772)" fill="#333"/><g transform="translate(386.186 208.07)"><path d="M1020.312,612.573h20.46V588.754h-35.808V611.1a9.58,9.58,0,0,1,1.908-1.709,5.88,5.88,0,0,1-.718-2.774,5.955,5.955,0,0,1,11.91,0,5.88,5.88,0,0,1-.718,2.774A9.553,9.553,0,0,1,1020.312,612.573Zm1.325-11.91h2.381v4.764h2.382V595.9h2.381v9.527h2.382V591.135h2.382v14.292h2.381v2.381h-14.291Zm-11.91-9.528h9.527v2.382h-9.527Zm0,7.146V595.9h9.527v2.381Z" transform="translate(-1002.503 -581.529)" fill="#333"/><path d="M1002.663,582h40.651v4.843h-40.651Z" transform="translate(-1002.663 -582)" fill="#333"/><path d="M1015.449,605.686a3.572,3.572,0,1,1-3.572-3.573A3.572,3.572,0,0,1,1015.449,605.686Z" transform="translate(-1002.27 -580.597)" fill="#333"/><path d="M1004.964,620.713h14.291V615.87a7.118,7.118,0,0,0-3.449-6.088,6,6,0,0,1-2.505,1.186v4.9h-2.382v-4.9a6,6,0,0,1-2.505-1.186,7.119,7.119,0,0,0-3.449,6.088Z" transform="translate(-1002.503 -580.062)" fill="#333"/></g></g></svg>