<svg xmlns="http://www.w3.org/2000/svg" xmlns:xlink="http://www.w3.org/1999/xlink" width="460" height="355.505" viewBox="0 0 460 355.505"><defs><clipPath id="a"><rect width="460" height="355.505" fill="none"/></clipPath></defs><g clip-path="url(#a)"><g transform="translate(389.902 233.381)"><path d="M791.453,1655.388a4.9,4.9,0,0,1-1.808-.923l.681-1.528a5.294,5.294,0,0,0,1.6.84,5.818,5.818,0,0,0,1.9.326,3.291,3.291,0,0,0,1.763-.378,1.146,1.146,0,0,0,.584-1,.962.962,0,0,0-.327-.748,2.252,2.252,0,0,0-.825-.464q-.5-.164-1.361-.379a15.4,15.4,0,0,1-1.96-.573,3.224,3.224,0,0,1-1.288-.9,2.422,2.422,0,0,1-.536-1.654,2.838,2.838,0,0,1,.475-1.6,3.249,3.249,0,0,1,1.439-1.141,5.807,5.807,0,0,1,2.352-.422,7.729,7.729,0,0,1,1.908.239,5.3,5.3,0,0,1,1.618.7l-.619,1.528a6.1,6.1,0,0,0-1.454-.62,5.38,5.38,0,0,0-1.468-.21,3.055,3.055,0,0,0-1.731.393,1.209,1.209,0,0,0-.567,1.043.943.943,0,0,0,.325.741,2.3,2.3,0,0,0,.825.453q.5.168,1.362.379a14.681,14.681,0,0,1,1.936.567,3.351,3.351,0,0,1,1.3.9,2.38,2.38,0,0,1,.536,1.635,2.8,2.8,0,0,1-.475,1.59,3.266,3.266,0,0,1-1.445,1.135,5.93,5.93,0,0,1-2.362.422A8.04,8.04,0,0,1,791.453,1655.388Z" transform="translate(-789.645 -1644.842)" fill="#333"/><path d="M804.469,1653.886v1.648h-7.945v-10.593h7.735v1.65h-5.766v2.756h5.115v1.619h-5.115v2.921Z" transform="translate(-786.114 -1644.791)" fill="#333"/><path d="M805.508,1655.033a5.2,5.2,0,0,1-2.041-1.954,5.624,5.624,0,0,1,0-5.583,5.19,5.19,0,0,1,2.041-1.951,6.416,6.416,0,0,1,5.843,0,5.211,5.211,0,0,1,2.043,1.945,5.653,5.653,0,0,1,0,5.6,5.233,5.233,0,0,1-2.043,1.945,6.417,6.417,0,0,1-5.843,0Zm4.829-1.5a3.458,3.458,0,0,0,1.332-1.333,4.022,4.022,0,0,0,0-3.827,3.43,3.43,0,0,0-1.332-1.33,4.03,4.03,0,0,0-3.814,0,3.432,3.432,0,0,0-1.333,1.33,4.033,4.033,0,0,0,0,3.827,3.461,3.461,0,0,0,1.333,1.333,4.063,4.063,0,0,0,3.814,0Z" transform="translate(-782.931 -1644.842)" fill="#333"/></g><circle cx="54.48" cy="54.48" r="54.48" transform="translate(351.04 111.012)" fill="#333"/><g transform="translate(7.544 233.381)"><path d="M539.769,1655.033a5.2,5.2,0,0,1-2.041-1.954,5.615,5.615,0,0,1,0-5.583,5.19,5.19,0,0,1,2.041-1.951,6.416,6.416,0,0,1,5.843,0,5.211,5.211,0,0,1,2.043,1.945,5.663,5.663,0,0,1,0,5.6,5.233,5.233,0,0,1-2.043,1.945,6.417,6.417,0,0,1-5.843,0Zm4.829-1.5a3.459,3.459,0,0,0,1.332-1.333,4.023,4.023,0,0,0,0-3.827,3.43,3.43,0,0,0-1.332-1.33,4.029,4.029,0,0,0-3.814,0,3.434,3.434,0,0,0-1.333,1.33,4.034,4.034,0,0,0,0,3.827,3.462,3.462,0,0,0,1.333,1.333,4.063,4.063,0,0,0,3.814,0Z" transform="translate(-536.985 -1644.842)" fill="#333"/><path d="M552.662,1645.393a3.5,3.5,0,0,1,1.566,1.3,3.965,3.965,0,0,1,0,4.016,3.449,3.449,0,0,1-1.566,1.309,5.88,5.88,0,0,1-2.4.456h-2.39v3.055h-1.969v-10.593h4.358A5.879,5.879,0,0,1,552.662,1645.393Zm-.536,4.875a2.159,2.159,0,0,0,0-3.119,3.025,3.025,0,0,0-1.952-.543h-2.3v4.205h2.3A3.026,3.026,0,0,0,552.126,1650.268Z" transform="translate(-532.406 -1644.791)" fill="#333"/><path d="M561.11,1653.886v1.648h-7.945v-10.593H560.9v1.65h-5.764v2.756h5.115v1.619h-5.115v2.921Z" transform="translate(-528.679 -1644.791)" fill="#333"/><path d="M566.8,1655.534l-2.163-3.1a4.061,4.061,0,0,1-.41.014h-2.39v3.089h-1.969v-10.593h4.358a5.879,5.879,0,0,1,2.4.453,3.5,3.5,0,0,1,1.566,1.3,3.638,3.638,0,0,1,.546,2.013,3.6,3.6,0,0,1-.583,2.057,3.452,3.452,0,0,1-1.674,1.286l2.438,3.481Zm-.71-8.385a3.025,3.025,0,0,0-1.952-.543h-2.3v4.22h2.3a3.009,3.009,0,0,0,1.952-.549,1.927,1.927,0,0,0,.666-1.566A1.906,1.906,0,0,0,566.086,1647.149Z" transform="translate(-525.24 -1644.791)" fill="#333"/><path d="M574.555,1653.081h-5.3l-1.046,2.453h-2.026l4.767-10.593h1.935l4.782,10.593h-2.057Zm-.652-1.542-2-4.632-1.984,4.632Z" transform="translate(-521.995 -1644.791)" fill="#333"/><path d="M577.275,1646.606h-3.51v-1.665h8.988v1.665h-3.509v8.928h-1.969Z" transform="translate(-518.104 -1644.791)" fill="#333"/><path d="M580.686,1644.941h1.966v10.593h-1.966Z" transform="translate(-514.552 -1644.791)" fill="#333"/><path d="M586.159,1655.033a5.2,5.2,0,0,1-2.043-1.954,5.625,5.625,0,0,1,0-5.583,5.194,5.194,0,0,1,2.043-1.951,6.413,6.413,0,0,1,5.841,0,5.215,5.215,0,0,1,2.045,1.945,5.663,5.663,0,0,1,0,5.6,5.237,5.237,0,0,1-2.045,1.945,6.414,6.414,0,0,1-5.841,0Zm4.828-1.5a3.457,3.457,0,0,0,1.332-1.333,4.022,4.022,0,0,0,0-3.827,3.429,3.429,0,0,0-1.332-1.33,4.027,4.027,0,0,0-3.812,0,3.433,3.433,0,0,0-1.333,1.33,4.033,4.033,0,0,0,0,3.827,3.462,3.462,0,0,0,1.333,1.333,4.06,4.06,0,0,0,3.812,0Z" transform="translate(-513.172 -1644.842)" fill="#333"/><path d="M601.709,1644.941v10.593h-1.621l-5.841-7.173v7.173h-1.952v-10.593h1.619l5.843,7.175v-7.175Z" transform="translate(-508.593 -1644.791)" fill="#333"/></g><circle cx="54.48" cy="54.48" r="54.48" transform="translate(0 111.012)" fill="#333"/><g transform="translate(386.044 146.017)"><path d="M809.66,1588.521a15.037,15.037,0,1,0-2.056,22.968,3.153,3.153,0,0,0,.859,1.593L817,1621.62a3.176,3.176,0,0,0,4.492-4.492l-8.537-8.54a3.186,3.186,0,0,0-1.592-.856A15.05,15.05,0,0,0,809.66,1588.521Zm-2.7,18.571a11.225,11.225,0,1,1,0-15.875A11.239,11.239,0,0,1,806.965,1607.092Z" transform="translate(-784 -1584.124)" fill="#fff"/></g><g transform="translate(35.004 147.016)"><path d="M554.053,1612.909a3.6,3.6,0,0,0,5.087,5.085l11.805-11.808-5.087-5.082Z" transform="translate(-553 -1580.658)" fill="#fff"/><path d="M578.8,1595.5l5.142-2.659,2.692-5.2-2.51-2.51-5.2,2.694-2.663,5.137-6.254,6.261,2.536,2.541Z" transform="translate(-548.242 -1585.128)" fill="#fff"/><path d="M584.677,1609.146l-.485-.048a7.133,7.133,0,0,0-2.485.468L566.947,1594.8a7.125,7.125,0,0,0,.467-2.485l-.047-.485a7.12,7.12,0,0,0-10.226-5.987l4.778,4.776a2.357,2.357,0,0,1,.539.864,2.384,2.384,0,0,1-2.233,3.229,2.571,2.571,0,0,1-1.7-.705l-4.776-4.775a7.12,7.12,0,0,0,5.987,10.226l.485.047a7.186,7.186,0,0,0,2.485-.465l14.756,14.759a7.241,7.241,0,0,0-.463,2.485l.051.485a7.162,7.162,0,0,0,7.14,6.706,7.047,7.047,0,0,0,3.083-.719l-4.778-4.777a2.418,2.418,0,0,1-.544-.86,2.39,2.39,0,0,1,2.238-3.232,2.352,2.352,0,0,1,.834.164,2.312,2.312,0,0,1,.86.539l4.778,4.778a7.092,7.092,0,0,0,.719-3.083A7.174,7.174,0,0,0,584.677,1609.146Z" transform="translate(-552.991 -1585.127)" fill="#fff"/></g><g transform="translate(178.211 122.151)"><path d="M652.523,1581.533a5.181,5.181,0,0,1-2.028-1.945,5.4,5.4,0,0,1-.734-2.8,5.347,5.347,0,0,1,.742-2.8,5.209,5.209,0,0,1,2.035-1.945,5.95,5.95,0,0,1,2.9-.7,6.051,6.051,0,0,1,2.376.453,4.847,4.847,0,0,1,1.816,1.318l-1.271,1.194a3.7,3.7,0,0,0-2.83-1.243,3.955,3.955,0,0,0-1.952.48,3.4,3.4,0,0,0-1.347,1.324,4.053,4.053,0,0,0,0,3.842,3.446,3.446,0,0,0,1.347,1.324,3.952,3.952,0,0,0,1.952.475,3.675,3.675,0,0,0,2.83-1.256l1.271,1.212a4.83,4.83,0,0,1-1.824,1.315,6.072,6.072,0,0,1-2.384.456A5.95,5.95,0,0,1,652.523,1581.533Z" transform="translate(-649.761 -1571.342)" fill="#333"/><path d="M659.815,1581.533a5.212,5.212,0,0,1-2.043-1.954,5.625,5.625,0,0,1,0-5.583,5.2,5.2,0,0,1,2.043-1.951,6.413,6.413,0,0,1,5.842,0,5.2,5.2,0,0,1,2.043,1.945,5.653,5.653,0,0,1,0,5.6,5.222,5.222,0,0,1-2.043,1.945,6.414,6.414,0,0,1-5.842,0Zm4.829-1.5a3.453,3.453,0,0,0,1.33-1.333,4.022,4.022,0,0,0,0-3.827,3.425,3.425,0,0,0-1.33-1.33,4.032,4.032,0,0,0-3.815,0,3.43,3.43,0,0,0-1.332,1.33,4.022,4.022,0,0,0,0,3.827,3.459,3.459,0,0,0,1.332,1.333,4.066,4.066,0,0,0,3.815,0Z" transform="translate(-646.029 -1571.342)" fill="#333"/><path d="M675.364,1571.441v10.593h-1.619l-5.841-7.173v7.173h-1.952v-10.593h1.619l5.841,7.175v-7.175Z" transform="translate(-641.45 -1571.291)" fill="#333"/><path d="M675.269,1581.888a4.91,4.91,0,0,1-1.808-.923l.681-1.528a5.314,5.314,0,0,0,1.6.84,5.817,5.817,0,0,0,1.9.325,3.3,3.3,0,0,0,1.763-.378,1.145,1.145,0,0,0,.583-1,.966.966,0,0,0-.325-.748,2.28,2.28,0,0,0-.825-.465c-.333-.109-.787-.236-1.362-.378a15.438,15.438,0,0,1-1.96-.573,3.208,3.208,0,0,1-1.286-.9,2.415,2.415,0,0,1-.537-1.654,2.839,2.839,0,0,1,.477-1.6,3.245,3.245,0,0,1,1.438-1.141,5.816,5.816,0,0,1,2.353-.422,7.735,7.735,0,0,1,1.907.239,5.33,5.33,0,0,1,1.619.7l-.619,1.528a6.138,6.138,0,0,0-1.454-.62,5.4,5.4,0,0,0-1.468-.21,3.057,3.057,0,0,0-1.733.393,1.208,1.208,0,0,0-.568,1.043.949.949,0,0,0,.326.742,2.316,2.316,0,0,0,.825.453c.333.112.787.239,1.364.378a14.788,14.788,0,0,1,1.936.568,3.342,3.342,0,0,1,1.294.9,2.373,2.373,0,0,1,.537,1.634,2.8,2.8,0,0,1-.477,1.591,3.268,3.268,0,0,1-1.445,1.135,5.927,5.927,0,0,1-2.361.422A8.051,8.051,0,0,1,675.269,1581.888Z" transform="translate(-637.595 -1571.342)" fill="#333"/><path d="M681.507,1580.954a4.8,4.8,0,0,1-1.226-3.535v-5.978h1.967v5.9q0,3.116,2.694,3.114,2.679,0,2.679-3.114v-5.9h1.937v5.978a4.82,4.82,0,0,1-1.218,3.535,5.354,5.354,0,0,1-6.833,0Z" transform="translate(-634.094 -1571.291)" fill="#333"/><path d="M688.23,1571.441H690.2v8.93h5.537v1.663H688.23Z" transform="translate(-630.014 -1571.291)" fill="#333"/><path d="M696.832,1573.105H693.32v-1.665h8.991v1.665H698.8v8.929h-1.966Z" transform="translate(-627.401 -1571.291)" fill="#333"/><path d="M700.24,1571.441h1.969v10.593H700.24Z" transform="translate(-623.849 -1571.291)" fill="#333"/><path d="M712.842,1571.441v10.593h-1.619l-5.84-7.173v7.173h-1.952v-10.593h1.618l5.841,7.175v-7.175Z" transform="translate(-622.211 -1571.291)" fill="#333"/><path d="M719.022,1576.667h1.861v4.221a5.862,5.862,0,0,1-1.908,1,7.271,7.271,0,0,1-2.238.348,6.032,6.032,0,0,1-2.922-.7,5.218,5.218,0,0,1-2.042-1.945,5.643,5.643,0,0,1,0-5.6,5.179,5.179,0,0,1,2.051-1.945,6.094,6.094,0,0,1,2.942-.7,6.448,6.448,0,0,1,2.423.437,4.763,4.763,0,0,1,1.831,1.285l-1.241,1.212a3.986,3.986,0,0,0-2.921-1.212,4.129,4.129,0,0,0-1.992.471,3.426,3.426,0,0,0-1.36,1.315,3.794,3.794,0,0,0-.492,1.938,3.72,3.72,0,0,0,.492,1.907,3.525,3.525,0,0,0,1.36,1.33,3.968,3.968,0,0,0,1.975.484,4.268,4.268,0,0,0,2.181-.543Z" transform="translate(-618.31 -1571.342)" fill="#333"/></g><circle cx="54.48" cy="54.48" r="54.48" transform="translate(175.02)" fill="#333"/><g transform="translate(212.024 30.003)"><path d="M686.214,1525.86a9.071,9.071,0,1,0-9.071-9.071A9.081,9.081,0,0,0,686.214,1525.86Z" transform="translate(-668.541 -1507.718)" fill="#fff"/><path d="M700.66,1524.518l-.015,0c-1.181-.289-4.8-.8-4.8-.8a.805.805,0,0,0-.992.494l-5.444,14.937a.982.982,0,0,1-1.846,0l-5.444-14.937a.8.8,0,0,0-.754-.529c-.078,0-3.8.521-5.035.829a7.713,7.713,0,0,0-5.516,7.635v12.429a3.373,3.373,0,0,0,3.373,3.372h28.6a3.373,3.373,0,0,0,3.373-3.372v-12.47a7.981,7.981,0,0,0-5.5-7.588Z" transform="translate(-670.815 -1501.98)" fill="#fff"/><path d="M686.49,1523.594a1.154,1.154,0,0,0-.855-.356h-2.4a1.155,1.155,0,0,0-.856.356,1.108,1.108,0,0,0-.147,1.309l1.281,1.932-.6,5.06,1.181,3.142a.36.36,0,0,0,.677,0l1.181-3.142-.6-5.06,1.281-1.932A1.109,1.109,0,0,0,686.49,1523.594Z" transform="translate(-666.764 -1502.14)" fill="#fff"/></g><g transform="translate(178.119 344.61)"><path d="M666.2,1718.441l-3.512,10.594H660.6l-2.617-7.838-2.665,7.838h-2.1l-3.512-10.594h2.044l2.632,8.052,2.741-8.052h1.816l2.677,8.1,2.709-8.1Z" transform="translate(-649.7 -1718.291)" fill="#333"/><path d="M669.756,1727.386v1.648h-7.945v-10.594h7.732v1.65h-5.766v2.756h5.115v1.619h-5.115v2.921Z" transform="translate(-643.483 -1718.291)" fill="#333"/><path d="M677.409,1724.487a2.68,2.68,0,0,1,.513,1.672,2.446,2.446,0,0,1-1.059,2.125,5.321,5.321,0,0,1-3.087.751h-5.265v-10.594h4.964a4.883,4.883,0,0,1,2.889.734,2.36,2.36,0,0,1,1.014,2.022,2.664,2.664,0,0,1-.362,1.392,2.5,2.5,0,0,1-1,.937A2.8,2.8,0,0,1,677.409,1724.487Zm-6.931-4.5v2.921h2.783a2.832,2.832,0,0,0,1.581-.371,1.224,1.224,0,0,0,.554-1.08,1.243,1.243,0,0,0-.554-1.1,2.845,2.845,0,0,0-1.581-.369Zm5.463,5.976q0-1.525-2.287-1.528h-3.177v3.06h3.177Q675.941,1727.492,675.941,1725.961Z" transform="translate(-640.044 -1718.291)" fill="#333"/><path d="M678.88,1718.441h4.631a6.672,6.672,0,0,1,3.013.657,4.9,4.9,0,0,1,2.042,1.861,5.673,5.673,0,0,1,0,5.554,4.852,4.852,0,0,1-2.042,1.863,6.631,6.631,0,0,1-3.013.658H678.88Zm4.54,8.93a4.523,4.523,0,0,0,2.051-.447,3.188,3.188,0,0,0,1.362-1.274,4.079,4.079,0,0,0,0-3.827,3.2,3.2,0,0,0-1.362-1.271,4.484,4.484,0,0,0-2.051-.447h-2.571v7.266Z" transform="translate(-634.721 -1718.291)" fill="#333"/><path d="M695.085,1727.386v1.648H687.14v-10.594h7.733v1.65h-5.766v2.756h5.115v1.619h-5.115v2.921Z" transform="translate(-630.481 -1718.291)" fill="#333"/><path d="M695.058,1728.888a4.909,4.909,0,0,1-1.808-.923l.681-1.528a5.31,5.31,0,0,0,1.6.84,5.824,5.824,0,0,0,1.9.325,3.3,3.3,0,0,0,1.763-.378,1.146,1.146,0,0,0,.584-1,.966.966,0,0,0-.327-.747,2.261,2.261,0,0,0-.825-.465q-.5-.164-1.362-.379a15.433,15.433,0,0,1-1.96-.573,3.21,3.21,0,0,1-1.286-.9,2.423,2.423,0,0,1-.537-1.654,2.84,2.84,0,0,1,.477-1.6,3.243,3.243,0,0,1,1.438-1.141,5.811,5.811,0,0,1,2.353-.422,7.721,7.721,0,0,1,1.907.239,5.3,5.3,0,0,1,1.619.7l-.619,1.529a6.113,6.113,0,0,0-1.454-.62,5.389,5.389,0,0,0-1.468-.21,3.057,3.057,0,0,0-1.733.394,1.208,1.208,0,0,0-.567,1.043.949.949,0,0,0,.325.742,2.317,2.317,0,0,0,.825.452q.5.168,1.363.379a14.792,14.792,0,0,1,1.936.567,3.343,3.343,0,0,1,1.294.9,2.372,2.372,0,0,1,.537,1.635,2.8,2.8,0,0,1-.477,1.59,3.267,3.267,0,0,1-1.445,1.135,5.922,5.922,0,0,1-2.361.422A8.05,8.05,0,0,1,695.058,1728.888Z" transform="translate(-627.344 -1718.342)" fill="#333"/><path d="M700.13,1718.441H702.1v10.594H700.13Z" transform="translate(-623.813 -1718.291)" fill="#333"/><path d="M710.812,1723.667h1.86v4.221a5.875,5.875,0,0,1-1.907,1,7.287,7.287,0,0,1-2.24.348,6.026,6.026,0,0,1-2.921-.7,5.218,5.218,0,0,1-2.042-1.945,5.644,5.644,0,0,1,0-5.6,5.186,5.186,0,0,1,2.049-1.945,6.1,6.1,0,0,1,2.943-.7,6.435,6.435,0,0,1,2.421.437,4.737,4.737,0,0,1,1.831,1.285l-1.239,1.212a3.99,3.99,0,0,0-2.922-1.212,4.122,4.122,0,0,0-1.99.47,3.43,3.43,0,0,0-1.362,1.315,3.8,3.8,0,0,0-.492,1.939,3.72,3.72,0,0,0,.492,1.907,3.527,3.527,0,0,0,1.362,1.33,3.964,3.964,0,0,0,1.975.484,4.266,4.266,0,0,0,2.181-.543Z" transform="translate(-622.432 -1718.342)" fill="#333"/><path d="M720.453,1718.441v10.594h-1.621l-5.84-7.173v7.173H711.04v-10.594h1.618l5.843,7.175v-7.175Z" transform="translate(-618.212 -1718.291)" fill="#333"/></g><circle cx="54.48" cy="54.48" r="54.48" transform="translate(175.02 222.025)" fill="#333"/><g transform="translate(209.024 256.029)"><path d="M674.672,1659.911h1.48v1.48h-1.48Z" transform="translate(-665.796 -1656.951)" fill="#fff"/><path d="M670.1,1659.911h1.48v1.48H670.1Z" transform="translate(-667.141 -1656.951)" fill="#fff"/><path d="M679.244,1659.911h1.48v1.48h-1.48Z" transform="translate(-664.449 -1656.951)" fill="#fff"/><path d="M707.391,1657.625H669.665a1.853,1.853,0,0,0-1.85,1.85v5.548H709.24v-5.548A1.852,1.852,0,0,0,707.391,1657.625Zm-33.658,5.178a.74.74,0,0,1-.741.74h-2.959a.74.74,0,0,1-.739-.74v-2.958a.74.74,0,0,1,.739-.74h2.959a.74.74,0,0,1,.741.74Zm5.917,0a.74.74,0,0,1-.739.74h-2.959a.74.74,0,0,1-.74-.74v-2.958a.74.74,0,0,1,.74-.74h2.959a.74.74,0,0,1,.739.74Zm5.917,0a.74.74,0,0,1-.739.74H681.87a.74.74,0,0,1-.739-.74v-2.958a.74.74,0,0,1,.739-.74h2.959a.74.74,0,0,1,.739.74Z" transform="translate(-667.815 -1657.625)" fill="#fff"/><path d="M686.1,1685.054h5.917v1.479H686.1Z" transform="translate(-662.429 -1649.547)" fill="#fff"/><path d="M670.672,1676.788h14.8v-8.877h-14.8Zm1.7-2.742,2.958-2.959a.74.74,0,0,1,1.046,0l.957.957,2.436-2.436a.74.74,0,0,1,1.046,0l2.959,2.96a.74.74,0,1,1-1.046,1.046l-2.436-2.437-1.913,1.913.956.957a.74.74,0,0,1-1.046,1.046l-2.436-2.436-2.435,2.436a.74.74,0,0,1-1.046-1.046Z" transform="translate(-666.974 -1654.595)" fill="#fff"/><path d="M667.815,1664.483v30.7a1.851,1.851,0,0,0,1.85,1.848h37.726a1.851,1.851,0,0,0,1.849-1.848v-30.7Zm22.192,11.1a.739.739,0,0,1,.739-.739h7.4a.739.739,0,0,1,.739.739v2.959a.739.739,0,0,1-.739.74h-7.4a.739.739,0,0,1-.739-.74Zm0-3.7a.74.74,0,0,1,.739-.74h11.836a.74.74,0,1,1,0,1.479H690.746a.739.739,0,0,1-.739-.739Zm-2.219,21.452a.74.74,0,0,1-.741.74H670.774a.74.74,0,0,1-.741-.74v-10.356a.739.739,0,0,1,.741-.739h16.273a.739.739,0,0,1,.741.739Zm0-14.794a.74.74,0,0,1-.741.74H670.774a.74.74,0,0,1-.741-.74v-10.356a.741.741,0,0,1,.741-.741h16.273a.741.741,0,0,1,.741.741Zm11.1,14.794a.74.74,0,0,1-.739.74h-7.4a.74.74,0,0,1-.739-.74v-2.958a.74.74,0,0,1,.739-.74h7.4a.74.74,0,0,1,.739.74Zm3.7-5.917H690.746a.74.74,0,0,1,0-1.48h11.836a.74.74,0,1,1,0,1.48Zm3.7-2.959H690.746a.74.74,0,0,1,0-1.48h15.534a.74.74,0,1,1,0,1.48Zm0-14.794H690.746a.74.74,0,0,1,0-1.48h15.534a.74.74,0,1,1,0,1.48Z" transform="translate(-667.815 -1655.605)" fill="#fff"/><path d="M670.672,1688.216h14.8v-8.876h-14.8Zm1.7-2.742,2.958-2.959a.737.737,0,0,1,1.046,0l.957.957,2.436-2.436a.74.74,0,0,1,1.046,0l2.959,2.959a.74.74,0,0,1-1.046,1.046l-2.436-2.436-1.913,1.913.956.956a.74.74,0,0,1-1.046,1.046l-2.436-2.436-2.435,2.436a.74.74,0,0,1-1.046-1.046Z" transform="translate(-666.974 -1651.229)" fill="#fff"/><path d="M686.1,1673.625h5.917v1.479H686.1Z" transform="translate(-662.429 -1652.913)" fill="#fff"/></g><path d="M717.124,1659.261l8.824.1-1.718-2.94,60.485-35.338-1.145-1.96-60.485,35.338-1.718-2.94Z" transform="translate(-436.97 -1424.662)" fill="#333"/><path d="M605.663,1622.02l3.939,7.9,1.831-2.871,59.063,37.666,1.221-1.914-59.063-37.667,1.831-2.871Z" transform="translate(-494.186 -1423.177)" fill="#333"/><path d="M662.93,1538.924l-8.824,0,1.753,2.919L595.8,1577.913l1.169,1.946,60.054-36.066,1.753,2.919Z" transform="translate(-499.247 -1465.832)" fill="#333"/><path d="M792.678,1580.06l-8.823.1,1.718-2.94-60.485-35.338,1.145-1.96,60.485,35.338,1.718-2.94Z" transform="translate(-432.882 -1465.319)" fill="#333"/></g></svg>